<?xml version="1.0" encoding="UTF-8"?><svg id="Capa_1" xmlns="http://www.w3.org/2000/svg" xmlns:xlink="http://www.w3.org/1999/xlink" viewBox="0 0 566.93 566.93"><defs><style>.cls-1{clip-path:url(#clippath-2);}.cls-2{fill:#e0040b;}.cls-2,.cls-3,.cls-4,.cls-5{stroke-width:0px;}.cls-3{fill:#1f140f;}.cls-4{fill:none;}.cls-6{clip-path:url(#clippath-1);}.cls-7{clip-path:url(#clippath-4);}.cls-5{fill:#fff;}.cls-8{clip-path:url(#clippath);}.cls-9{clip-path:url(#clippath-3);}.cls-10{clip-path:url(#clippath-5);}</style><clipPath id="clippath"><rect class="cls-4" x="4.25" y="4.25" width="558.43" height="558.43"/></clipPath><clipPath id="clippath-1"><rect class="cls-4" x="4.25" y="4.25" width="558.43" height="558.43"/></clipPath><clipPath id="clippath-2"><rect class="cls-4" x="5.22" y="5.22" width="556.49" height="556.49"/></clipPath><clipPath id="clippath-3"><rect class="cls-4" x="5.22" y="5.22" width="556.49" height="556.49"/></clipPath><clipPath id="clippath-4"><rect class="cls-4" x="141.56" y="141.7" width="283.81" height="271.98"/></clipPath><clipPath id="clippath-5"><rect class="cls-4" x="141.56" y="141.7" width="283.81" height="271.98"/></clipPath></defs><g class="cls-8"><g class="cls-6"><g class="cls-1"><g class="cls-9"><path class="cls-3" d="M480.21,86.72c52.56,52.55,81.5,122.43,81.5,196.74s-28.94,144.2-81.5,196.75c-52.55,52.56-122.43,81.5-196.75,81.5s-144.19-28.94-196.74-81.5C34.16,427.67,5.22,357.79,5.22,283.46s28.94-144.19,81.5-196.74C139.27,34.16,209.14,5.22,283.46,5.22s144.2,28.94,196.75,81.5M548.91,283.46c0-146.36-119.08-265.44-265.45-265.44S18.02,137.1,18.02,283.46s119.08,265.45,265.44,265.45,265.45-119.08,265.45-265.45"/><path class="cls-3" d="M283.46,18.02c146.37,0,265.45,119.08,265.45,265.44s-119.08,265.45-265.45,265.45S18.02,429.83,18.02,283.46,137.1,18.02,283.46,18.02"/></g></g><g class="cls-7"><g class="cls-10"><path class="cls-3" d="M425.37,249.05c.05.77-.35,1.49-1.01,1.84l.33-.3c.67-.63.82-1.64.35-2.43-.14-.23-.32-.42-.52-.58.48.33.81.87.85,1.48"/><path class="cls-3" d="M425.04,248.15c.46.8.31,1.8-.35,2.43l-.33.3c-.11.07-.24.13-.36.17l-4.05,1.26,3.32-3.1.14-.04h-.08s.02-.03.02-.03h-.04s-4.24-.73-4.24-.73l3.7-1.15c.24-.07.47-.1.7-.08.03,0,.06,0,.09,0l.2.04c.11.02.22.05.33.09.09.03.17.07.25.11.08.04.15.09.21.14.21.16.38.35.52.58"/><path class="cls-3" d="M424.35,250.89l-70.83,66.08-.2-1.34c-.04-.32-.16-.61-.33-.86l66.95-62.46,4.05-1.26c.13-.04.26-.1.36-.17"/><path class="cls-3" d="M424.32,247.43c-.08-.04-.16-.08-.25-.11.08.03.17.07.25.11"/><path class="cls-3" d="M424.07,247.32c-.11-.04-.22-.07-.33-.09l-.2-.04c.18.01.35.05.52.13"/><path class="cls-3" d="M423.46,247.18c-.23-.02-.46,0-.7.08l-3.7,1.15-90.42-15.77c.09-.41.05-.86-.14-1.25l-.39-.85,95.36,16.64Z"/><polygon class="cls-3" points="423.4 249.17 423.26 249.21 423.32 249.16 423.4 249.17"/><polygon class="cls-3" points="423.34 249.14 423.32 249.16 423.3 249.15 423.34 249.14"/><polygon class="cls-3" points="423.32 249.16 423.26 249.21 283.86 292.6 283.82 292.58 423.3 249.15 423.32 249.16"/><polygon class="cls-3" points="423.3 249.15 283.82 292.58 283.76 292.56 285.73 289.95 415.04 249.72 414.94 249.7 419.05 248.42 423.3 249.15"/><polygon class="cls-3" points="423.26 249.21 419.94 252.32 415.6 253.67 415.69 253.59 287.11 293.62 283.86 292.6 423.26 249.21"/><path class="cls-3" d="M419.94,252.32l-66.95,62.46c-.25-.34-.6-.61-1.01-.74l-.81-.26,64.43-60.11,4.34-1.35Z"/><path class="cls-3" d="M419.06,248.42l-4.12,1.28-87.44-15.25.78-1.03c.18-.23.3-.49.35-.77l90.42,15.77Z"/><polygon class="cls-5" points="415.69 253.59 415.6 253.67 287.15 293.64 287.1 293.62 415.69 253.59"/><polygon class="cls-5" points="415.6 253.67 351.17 313.78 287.15 293.64 415.6 253.67"/><polygon class="cls-3" points="415.04 249.72 285.73 289.95 285.76 289.92 414.94 249.69 415.04 249.72"/><polygon class="cls-2" points="414.94 249.7 285.76 289.92 327.5 234.45 414.94 249.7"/><path class="cls-3" d="M367.08,411.04c.07.22.1.44.08.67,0-.09,0-.19-.02-.28l-.06-.39Z"/><path class="cls-3" d="M367.14,411.43c0,.09.02.19.02.28s0,.18-.02.27c-.07.34-.22.68-.47.97-.38.42-.92.66-1.47.66-.33,0-.65-.08-.96-.25l-.44-.25c-.07-.07-.15-.16-.21-.25l-2.52-3.52,4.02,2.23.1.14v-.09s0,0,0,0l-.03-.04-.61-4.24,2.25,3.12c.12.17.22.36.27.55h0s.06.4.06.4Z"/><path class="cls-3" d="M353.52,316.97l13.55,94.06c-.06-.19-.16-.38-.28-.55l-2.25-3.12-12.86-89.35c.47,0,.92-.19,1.28-.52l.55-.51Z"/><path class="cls-3" d="M366.66,412.94c.26-.29.4-.62.47-.97-.09.69-.55,1.3-1.21,1.57-.24.1-.49.14-.74.14-.51,0-1.01-.2-1.39-.57l.44.25c.31.17.63.25.96.25.55,0,1.08-.24,1.47-.66"/><polygon class="cls-3" points="365.17 411.59 365.2 411.63 365.18 411.62 365.17 411.59"/><polygon class="cls-3" points="365.18 411.62 365.19 411.71 365.09 411.57 365.18 411.62"/><polygon class="cls-3" points="365.17 411.59 365.18 411.62 365.09 411.57 282.49 296.41 282.49 296.36 365.17 411.59"/><polygon class="cls-3" points="364.56 407.35 365.17 411.59 282.49 296.36 282.49 296.33 285.53 297.28 362.08 404.02 362.06 403.88 364.56 407.35"/><polygon class="cls-3" points="282.48 296.41 365.09 411.57 361.07 409.34 358.38 405.6 358.49 405.66 282.48 299.71 282.48 296.41"/><path class="cls-3" d="M364.56,407.35l-2.49-3.48-12.44-86.39,1.42.44c.2.06.39.09.59.09.02,0,.04,0,.06,0l12.86,89.35Z"/><path class="cls-3" d="M363.8,413.11l-84-46.55,1.38-.71c.23-.12.42-.27.58-.45l79.31,43.95,2.52,3.52c.06.09.14.18.21.25"/><polygon class="cls-3" points="362.06 403.88 362.08 404.02 285.53 297.28 285.59 297.3 362.06 403.88"/><polygon class="cls-2" points="362.06 403.88 285.59 297.3 349.62 317.48 362.06 403.88"/><path class="cls-3" d="M358.38,405.6l2.69,3.74-79.31-43.95c.31-.34.48-.8.48-1.28v-.7l76.14,42.19Z"/><polygon class="cls-3" points="282.48 299.71 358.49 405.66 358.38 405.6 282.48 299.78 282.48 299.71"/><polygon class="cls-5" points="282.48 299.78 358.38 405.6 282.24 363.41 282.48 299.78"/><path class="cls-3" d="M353.33,315.63l.2,1.34-.55.51c-.36.33-.81.51-1.28.52l-.3-2.04.24.08,1.36-1.27c.18.25.3.54.33.86"/><path class="cls-3" d="M352.99,314.77l-1.36,1.27-.24-.08v-.05s-67.54-21.26-67.54-21.26l3.25-1,64.02,20.16.04-.04.81.26c.41.13.77.39,1.01.74"/><path class="cls-3" d="M351.69,318.01s-.04,0-.06,0c-.2,0-.39-.03-.59-.09l-1.42-.44v-.06s-64.05-20.15-64.05-20.15l-1.84-2.57.08-.02,67.59,21.29.3,2.04Z"/><polygon class="cls-3" points="351.39 315.92 351.4 315.97 283.81 294.68 283.85 294.66 351.39 315.92"/><polygon class="cls-3" points="351.17 313.78 351.13 313.82 287.1 293.66 287.15 293.64 351.17 313.78"/><polygon class="cls-3" points="349.62 317.48 285.59 297.3 285.57 297.27 349.61 317.42 349.62 317.48"/><path class="cls-3" d="M328.49,231.39c.19.39.23.84.14,1.25l-1.98-.34.05-.07-.85-1.82c.31-.11.65-.14.98-.08l1.26.22.39.85Z"/><path class="cls-3" d="M326.65,232.3l1.98.34c-.06.28-.18.54-.36.77l-.78,1.03-.15-.03-41.63,55.51-3.13.97v-.07s44.06-58.53,44.06-58.53Z"/><path class="cls-3" d="M287.51,143.68l40.59,86.87-1.26-.22c-.33-.06-.68-.03-.98.08l-38.49-82.39.15-4.29v-.05Z"/><polygon class="cls-3" points="327.5 234.45 285.76 289.92 285.73 289.92 327.35 234.42 327.5 234.45"/><path class="cls-3" d="M325.85,230.41l.85,1.82-.05.07-.15-.03-43.9,58.54.11-3.41,41.7-55.42-.06-.13.57-.77c.24-.32.56-.55.93-.68"/><polygon class="cls-3" points="326.65 232.3 282.6 290.83 282.6 290.81 326.51 232.27 326.65 232.3"/><path class="cls-3" d="M287.36,148.02l38.49,82.39c-.36.13-.69.36-.93.68l-.57.77-37.14-79.47.14-4.36Z"/><polygon class="cls-3" points="324.36 231.86 324.42 231.99 282.71 287.4 282.71 287.37 324.36 231.86"/><polygon class="cls-5" points="287.22 152.39 324.36 231.86 282.71 287.37 287.22 152.39"/><path class="cls-3" d="M287.51,143.68v.05l-.15,4.29-1.83-3.94v-.41s-2.2,4.23-2.2,4.23l.14-4.06c.03-.91.68-1.67,1.58-1.86.89-.19,1.79.26,2.18,1.09l.29.6h0Z"/><path class="cls-3" d="M287.51,143.67l-.29-.6c-.39-.83-1.29-1.28-2.18-1.09-.9.19-1.55.96-1.58,1.86l-.14,4.06-42,80.68c-.34-.2-.75-.28-1.15-.23l-1.01.12,44.62-85.71c.42-.81,1.36-1.22,2.26-.99.87.23,1.47,1.01,1.47,1.91"/><polygon class="cls-3" points="285.53 144.08 287.36 148.02 287.22 152.39 287.13 152.2 282.7 287.39 280.65 290.12 280.65 290.11 285.53 144.08"/><polygon class="cls-3" points="287.13 152.2 287.22 152.39 282.71 287.37 282.7 287.39 287.13 152.2"/><polygon class="cls-3" points="287.15 293.64 287.1 293.66 287.06 293.64 287.1 293.62 287.15 293.64"/><polygon class="cls-3" points="287.1 293.62 287.06 293.64 287.1 293.66 283.85 294.66 283.65 294.6 282.96 293.64 283.7 292.65 283.86 292.6 287.1 293.62"/><polygon class="cls-3" points="285.76 289.92 285.73 289.95 285.7 289.96 285.73 289.92 285.76 289.92"/><polygon class="cls-3" points="282.59 290.9 285.73 289.92 285.7 289.96 285.73 289.95 283.76 292.56 282.55 292.19 282.59 290.9"/><polygon class="cls-3" points="285.57 297.27 285.59 297.3 285.53 297.28 285.51 297.25 285.57 297.27"/><polygon class="cls-3" points="283.73 294.7 285.57 297.27 285.51 297.25 285.53 297.28 282.48 296.33 282.48 295.08 283.73 294.7"/><polygon class="cls-3" points="285.54 143.67 285.53 144.08 285.44 143.91 280.64 290.09 278.78 287.17 283.28 152.27 283.18 152.46 283.33 147.9 285.54 143.67"/><polygon class="cls-3" points="285.53 144.08 280.65 290.11 280.64 290.09 285.44 143.91 285.53 144.08"/><polygon class="cls-3" points="283.86 292.6 283.7 292.65 283.73 292.61 283.82 292.58 283.86 292.6"/><polygon class="cls-3" points="283.85 294.66 283.8 294.68 283.68 294.64 283.65 294.6 283.85 294.66"/><polygon class="cls-3" points="283.82 292.58 283.73 292.61 283.76 292.56 283.82 292.58"/><polygon class="cls-3" points="283.8 294.68 283.73 294.7 283.68 294.64 283.8 294.68"/><polygon class="cls-3" points="283.76 292.56 283.73 292.61 282.52 292.99 282.55 292.19 283.76 292.56"/><polygon class="cls-3" points="283.73 294.7 282.48 295.08 282.5 294.28 282.5 294.27 283.68 294.64 283.73 294.7"/><polygon class="cls-3" points="283.73 292.61 283.7 292.65 282.52 293.02 282.52 292.99 283.73 292.61"/><polygon class="cls-3" points="283.7 292.65 282.96 293.64 282.52 293.04 282.52 293.02 283.7 292.65"/><path class="cls-3" d="M283.65,294.6l.03.04-1.18-.38s0-.02,0-.03l1.14.36Z"/><path class="cls-3" d="M282.96,293.64l.69.97-1.14-.36s0,0,0,0l.45-.59Z"/><path class="cls-3" d="M241.33,228.58l42-80.68-.15,4.56-40.49,77.78-.61-.98c-.19-.29-.44-.53-.75-.68"/><polygon class="cls-3" points="283.28 152.27 278.78 287.16 278.76 287.14 283.18 152.46 283.28 152.27"/><polygon class="cls-2" points="283.18 152.46 278.76 287.14 242.69 230.23 283.18 152.46"/><path class="cls-3" d="M282.52,293.04l.43.6-.45.59c.06-.15.09-.31.1-.48,0-.23-.02-.44-.08-.65v-.06Z"/><polygon class="cls-3" points="282.7 287.39 282.71 287.37 282.71 287.4 282.7 287.42 282.7 287.39"/><polygon class="cls-3" points="282.7 287.42 282.71 287.4 282.6 290.81 282.52 290.93 281.39 291.27 280.65 290.12 282.7 287.39 282.7 287.42"/><path class="cls-3" d="M282.52,293.09c.06.21.09.42.08.65,0,.17-.04.33-.1.48,0,.01,0,.01,0,.01h0v-.45h0s0-.06,0-.09v-.08h0s.02-.52.02-.52Z"/><polygon class="cls-3" points="282.6 290.81 282.6 290.83 282.53 290.92 282.51 290.93 282.6 290.81"/><polygon class="cls-3" points="282.6 290.83 282.59 290.9 282.53 290.92 282.6 290.83"/><polygon class="cls-3" points="282.59 290.9 282.55 292.19 281.83 291.95 281.79 291.9 282.53 290.92 282.59 290.9"/><path class="cls-3" d="M282.55,292.19l-.03.8h-.03s0,0,0-.02c-.11-.29-.28-.55-.5-.75l-.16-.27.73.24Z"/><polygon class="cls-3" points="282.53 290.92 281.79 291.9 282.51 290.93 282.53 290.92"/><polygon class="cls-3" points="282.52 292.99 282.52 293.02 282.51 293.02 282.5 293 282.52 292.99"/><polygon class="cls-3" points="282.52 293.02 282.52 293.04 282.51 293.02 282.52 293.02"/><path class="cls-3" d="M282.52,293.04v.06s0-.05-.02-.07h0s0,0,0,0Z"/><path class="cls-3" d="M282.52,293.09l-.02.51c0-.19-.03-.37-.08-.55h0s.08-.03.08-.03c0,.02,0,.05.02.07"/><path class="cls-3" d="M282.5,293l.02.02h0s0,0,0-.02"/><polygon class="cls-3" points="282.51 290.93 281.79 291.9 281.39 291.27 282.51 290.93"/><path class="cls-3" d="M282.51,293.62v.08s0,.02,0,.03c0-.04,0-.07,0-.11"/><path class="cls-3" d="M282.51,293.7s0,.05,0,.08v-.05s0-.02,0-.03"/><path class="cls-3" d="M282.51,293.61h0c0,.05,0,.08,0,.12v-.11c0-.2-.02-.39-.09-.56h.01s0,0,0,0c.05.18.08.37.08.55"/><path class="cls-3" d="M282.51,294.24s0,.02,0,.03v-.02h0s0,0,0,0Z"/><path class="cls-3" d="M282.5,293s0,.02,0,.03l-.08.02h0s0-.01,0-.02h0s.08-.03.08-.03Z"/><path class="cls-3" d="M282.5,293.72v.05s-.01.09-.02.14c0,.02,0,.03,0,.04-.02.09-.04.18-.07.26l-1.79-.56h.02s-.04-.03-.04-.03l1.81-.56c.07.18.09.36.09.56v.11Z"/><path class="cls-3" d="M282.5,294.24h0s-.01.03-.01.03l-.08-.03s.01-.02.01-.03l.08.03Z"/><path class="cls-3" d="M282.48,292.97s0,.02.01.03l-.08.02s-.01-.02-.01-.02h0c-.02-.11-.07-.22-.14-.32l.23.3Z"/><path class="cls-3" d="M282.5,293.77h0c0,.06,0,.1-.02.14,0-.05.02-.1.02-.14"/><path class="cls-3" d="M282.48,293.91s.02-.08.02-.13c0,.06-.01.11-.02.17,0,0,0-.02,0-.04"/><polygon class="cls-3" points="282.48 294.27 282.5 294.25 282.5 294.27 282.48 294.27"/><path class="cls-3" d="M282.5,294.27h0c-.13.39-.38.72-.69.94l.26-.34c.08-.09.14-.19.19-.29.02-.02.03-.04.03-.05t.01-.02l.19-.24h.01Z"/><path class="cls-3" d="M282.5,293.78v.45l-.08-.03c.03-.08.05-.17.06-.26,0-.06.02-.11.02-.17"/><path class="cls-3" d="M282.5,294.28v.81s-.75.24-.75.24h0s.07-.12.07-.12c.31-.22.56-.54.69-.92"/><polygon class="cls-3" points="281.75 295.32 282.48 295.08 282.48 296.33 282.46 296.31 281.75 295.32"/><polygon class="cls-3" points="282.46 296.31 282.48 296.33 282.48 296.35 282.46 296.31"/><polygon class="cls-3" points="282.46 296.31 282.48 296.35 282.48 296.41 282.4 296.3 282.46 296.31"/><polygon class="cls-3" points="282.4 296.3 282.49 296.41 282.48 299.71 282.44 299.66 282.44 299.73 280.52 297.05 280.52 296.92 281.25 295.93 282.4 296.3"/><path class="cls-3" d="M282.41,294.24l.08.03-.19.24s.02-.03.02-.04c.03-.07.06-.14.08-.21,0,0,0,0,0-.02"/><path class="cls-3" d="M282.48,292.97l-.23-.3s0-.03-.02-.04c0-.03-.02-.05-.04-.08l-.06-.09s0,0,0-.01l-.15-.24c.23.2.39.46.5.75"/><path class="cls-3" d="M282.41,294.21c.03-.08.05-.17.07-.26,0,.09-.03.18-.06.26h-.01Z"/><polygon class="cls-3" points="282.48 299.71 282.48 299.78 282.44 299.73 282.44 299.66 282.48 299.71"/><polygon class="cls-3" points="282.48 299.78 282.24 363.41 281.94 363.25 282.44 299.73 282.48 299.78"/><polygon class="cls-3" points="282.46 296.31 282.4 296.3 281.72 295.33 281.75 295.32 282.46 296.31"/><path class="cls-3" d="M280.51,297.05l1.92,2.68-.49,63.51.3.17v.7c0,.48-.18.94-.48,1.28l-1.79-.99v-.14l.31-.16.25-67.05Z"/><polygon class="cls-3" points="282.43 293.05 282.43 293.06 282.42 293.05 282.43 293.05"/><path class="cls-3" d="M282.42,293.03s0,0,0,.02h-.01s.01-.01,0-.02h.01Z"/><path class="cls-3" d="M282.42,294.21s0,.02-.01.03v-.03h.01Z"/><path class="cls-3" d="M282.42,293.02h0s-.01,0-.01,0c.01,0,.01-.02,0-.03,0,0,0,.01.01.02"/><path class="cls-3" d="M282.41,293s.01.02,0,.03c0,0,0-.02,0-.03h0Z"/><path class="cls-3" d="M282.41,293.03s.01.02,0,.03l-1.81.56h-.05s1.86-.59,1.86-.59Z"/><polygon class="cls-3" points="282.41 294.21 282.41 294.24 280.55 293.66 280.61 293.65 282.41 294.21"/><path class="cls-3" d="M282.41,294.24s0,.02,0,.02c-.04.1-.08.2-.13.29l-.17.23c-.13.17-.28.31-.44.43l-1.1-1.55,1.85.58Z"/><path class="cls-3" d="M282.4,293s0,.02,0,.03l-1.86.58h0v-.04l1.16-1.54s.02.02.03.02c.02.01.04.03.06.05.12.11.23.23.33.35l.1.14s.02.03.03.04c.01,0,.01.03.02.04,0,0,.02.03.02.04.05.09.09.19.12.28"/><path class="cls-3" d="M282.4,294.26c-.02.07-.05.14-.08.21,0,0,0,.03-.02.04t0,.02l-.02.02c.05-.09.09-.19.13-.29"/><path class="cls-3" d="M282.32,294.46c.03-.07.06-.14.08-.21-.02.07-.05.14-.08.21"/><polygon class="cls-3" points="281.72 295.33 282.4 296.3 281.25 295.93 281.71 295.33 281.72 295.33"/><path class="cls-3" d="M282.4,293c-.03-.1-.07-.2-.12-.28.06.09.1.19.12.28"/><path class="cls-3" d="M282.26,292.67c.07.11.12.22.14.32-.02-.1-.06-.2-.12-.28,0-.01,0-.03-.02-.04"/><path class="cls-3" d="M282.29,294.52s0,.03-.03.05c0,0,0-.02,0-.03l.02-.02Z"/><path class="cls-3" d="M282.27,294.54s0,.02,0,.03c-.06.1-.13.2-.2.29-.05.06-.1.11-.15.17-.08.07-.16.14-.25.19h0c.17-.13.32-.28.44-.44l.17-.23Z"/><path class="cls-3" d="M282.26,294.57c-.05.1-.11.2-.19.29-.04.06-.09.12-.16.17.05-.06.1-.11.15-.17.07-.09.14-.19.2-.29"/><path class="cls-3" d="M282.2,292.55s.03.05.04.08c0-.01-.02-.03-.03-.04,0-.01,0-.03-.01-.04"/><path class="cls-3" d="M282.2,292.55s.02.03.01.04c-.02-.04-.05-.09-.07-.13l.06.09Z"/><path class="cls-3" d="M282.14,292.46s.05.09.07.13l-.1-.14c-.1-.13-.21-.25-.33-.35.05.04.1.08.15.13.06.07.12.14.18.21,0,0,0,.02.02.02,0,.01,0,.01,0,.01"/><path class="cls-3" d="M281.98,292.22l.15.24s-.02,0-.02-.02c-.05-.08-.11-.15-.18-.21-.05-.05-.1-.1-.15-.13-.02-.02-.04-.04-.06-.05,0-.02-.02-.02-.03-.02h0s.02-.03.02-.03c.1.06.19.13.27.22"/><path class="cls-3" d="M282.11,292.43c-.06-.07-.12-.14-.18-.21.07.06.13.13.18.21"/><path class="cls-3" d="M282.07,294.86l-.27.34s-.06.06-.09.08l-.04-.05c.09-.06.18-.13.24-.21.07-.05.12-.11.16-.17"/><path class="cls-3" d="M281.82,291.95l.16.27c-.08-.09-.17-.16-.26-.22l.05-.06h.06Z"/><path class="cls-3" d="M281.93,292.23s-.1-.09-.15-.13c.05.03.1.08.15.13"/><path class="cls-3" d="M281.91,295.03c-.06.08-.15.15-.24.21v-.02c.08-.05.16-.12.24-.19"/><polygon class="cls-3" points="281.82 291.95 281.77 291.94 281.79 291.9 281.82 291.95"/><path class="cls-3" d="M281.72,295.28s.06-.04.09-.08l-.07.11-.02-.03Z"/><polygon class="cls-3" points="281.79 291.9 281.77 291.94 281.76 291.93 281.79 291.9"/><path class="cls-3" d="M281.39,291.27l.39.63-.03.03-.38-.11s-.03-.02-.05-.03l-.73-.28.79-.25Z"/><polygon class="cls-3" points="281.77 291.94 281.72 292 281.72 291.99 281.76 291.93 281.77 291.94"/><path class="cls-3" d="M281.76,291.93l-.04.06c-.1-.07-.22-.13-.34-.17l.38.11Z"/><path class="cls-3" d="M279.96,364.4l1.79.99c-.16.19-.35.34-.58.45l-1.38.71-.79-.43c-.38-.21-.68-.54-.85-.92l1.8-.94v.14Z"/><polygon class="cls-3" points="281.75 295.32 281.72 295.33 281.74 295.31 281.75 295.32"/><path class="cls-3" d="M281.74,295.31l-.02.02h0l-.02-.03s.02-.01.03-.02l.02.03Z"/><path class="cls-3" d="M281.7,292.03s.02,0,.03.02c0,0-.02,0-.03-.02"/><polygon class="cls-3" points="281.72 291.99 281.72 292 281.7 292.02 281.72 291.99"/><path class="cls-3" d="M281.72,291.99l-.02.03h0s-.06-.05-.09-.06c-.04-.04-.09-.07-.14-.09,0,0-.03-.02-.04-.02-.03,0-.05-.03-.08-.03,0,0,0,0-.02-.02l.06.02c.12.04.24.1.34.17"/><path class="cls-3" d="M281.68,295.23l.04.05s-.02,0-.03.02l-.03-.05s0,0,.02-.02"/><path class="cls-3" d="M281.71,295.33l-.45.6-.73-.23.6-.16c.13-.03.26-.08.37-.15l.21-.07Z"/><path class="cls-3" d="M281.69,295.3l.02.03-.21.07c.07-.02.13-.06.19-.1"/><rect class="cls-3" x="281.69" y="292.02" width="0" height="0"/><polygon class="cls-3" points="281.7 292.03 280.53 293.57 280.53 293.56 281.69 292.03 281.7 292.03"/><path class="cls-3" d="M281.6,291.96s.06.03.09.06c-.03-.02-.06-.04-.09-.06"/><path class="cls-3" d="M281.69,292.02h0s-1.15,1.54-1.15,1.54l.07-1.91c.06,0,.12,0,.18,0,.02,0,.04,0,.06,0h0s.09.02.14.03c.06,0,.12.03.18.05.03,0,.06.02.08.03.03.02.07.03.1.05.03,0,.05.02.08.03.01,0,.02.02.04.02.05.02.1.05.14.09.03.02.06.04.09.06"/><path class="cls-3" d="M281.66,295.25l.03.05c-.06.04-.12.08-.19.1l-.38.12c.2-.06.38-.16.54-.27"/><path class="cls-3" d="M281.67,295.21v.02s0,0,0,.02l-.02-.02s.02,0,.03-.02"/><path class="cls-3" d="M281.67,295.21s-.02.02-.03.02h-.01s.02-.03.03-.03h0Z"/><path class="cls-3" d="M280.55,293.66l1.1,1.55s-.02,0-.03.02l-1.1-1.55h0s.02-.02.02-.02h0Z"/><path class="cls-3" d="M281.64,295.23l.02.02c-.16.11-.34.21-.54.27l-.07.02s-.03,0-.04,0c-.16.04-.31.06-.47.06h-.02v-.03h.02c.39,0,.78-.12,1.1-.34"/><path class="cls-3" d="M281.63,295.22h.01c-.33.24-.71.35-1.1.35h-.02v-.02h.01c.39,0,.78-.12,1.1-.33"/><path class="cls-3" d="M280.53,293.68l1.1,1.55c-.33.22-.71.33-1.1.33h-.01v-1.88Z"/><path class="cls-3" d="M281.12,295.52l.38-.12c-.12.07-.25.12-.37.15l-.6.16h0v-.08c.16,0,.33-.03.49-.08,0,0,.03,0,.04,0l.07-.02Z"/><path class="cls-3" d="M281.46,291.87s-.03,0-.04-.02c.01,0,.03,0,.04.02"/><polygon class="cls-3" points="281.39 291.27 280.6 291.52 280.65 290.12 281.39 291.27"/><path class="cls-3" d="M281.38,291.82l-.06-.02s-.05-.02-.08-.03c-.02-.01-.05-.02-.08-.03-.06-.02-.12-.04-.18-.05-.05,0-.09-.02-.14-.03h0s-.04,0-.06,0c-.06,0-.12-.02-.18-.02v-.12l.73.28s.03,0,.05.03"/><path class="cls-3" d="M281.32,291.8s.02.02.02.02c-.03-.02-.07-.03-.1-.05.03,0,.06.02.08.03"/><polygon class="cls-3" points="281.25 295.93 280.51 296.92 280.51 295.71 280.53 295.71 281.25 295.93"/><path class="cls-3" d="M280.99,291.7s-.1-.02-.14-.03c.05,0,.09.02.14.03"/><path class="cls-3" d="M280.84,291.67s-.04,0-.06,0c.02,0,.04,0,.06,0"/><path class="cls-3" d="M280.54,295.61c.16,0,.31-.02.47-.06-.17.05-.33.07-.49.08v-.02h.02Z"/><path class="cls-3" d="M280.78,291.66c-.06,0-.12,0-.18,0h0c.06-.01.12,0,.18,0"/><polygon class="cls-3" points="280.65 290.11 280.65 290.12 280.63 290.14 280.64 290.09 280.65 290.11"/><polygon class="cls-3" points="280.63 290.14 280.65 290.12 280.6 291.52 280.59 291.52 280.63 290.14"/><polygon class="cls-3" points="280.64 290.09 280.63 290.14 279.83 291.22 278.77 290.83 278.65 290.63 278.76 287.16 278.78 287.19 278.78 287.16 280.64 290.09"/><polygon class="cls-3" points="279.83 291.22 280.63 290.14 280.59 291.52 279.83 291.22"/><polygon class="cls-3" points="280.63 293.64 280.61 293.65 280.56 293.63 280.58 293.62 280.59 293.62 280.63 293.64"/><polygon class="cls-3" points="280.61 293.65 280.55 293.66 280.55 293.66 280.54 293.64 280.56 293.63 280.61 293.65"/><polygon class="cls-3" points="280.6 291.52 280.6 291.64 280.59 291.64 280.59 291.53 280.59 291.52 280.6 291.52"/><path class="cls-3" d="M280.6,291.64h0s0,0-.02.01h0s0-.01,0-.01h0Z"/><path class="cls-3" d="M280.6,291.65l-.07,1.91h0s0,.02,0,.02l.06-1.93s0-.01.02,0"/><path class="cls-3" d="M279.83,291.22l.77.3h0s-.35.12-.35.12c-.01,0-.01.01-.02,0-.2.03-.38.09-.56.17l-.23.06-.04-.06.43-.58Z"/><path class="cls-3" d="M280.59,291.53v.11h0c-.12,0-.23,0-.34,0l.35-.11Z"/><path class="cls-3" d="M280.58,291.64h-.05.05Z"/><path class="cls-3" d="M280.58,291.65l-.06,1.93h0s0,0,0,0l-1.03-1.64c.12-.08.25-.14.38-.19,0,0,0,0,.02,0s.02,0,.04,0l.12-.03c.08-.02.17-.03.25-.05.1,0,.2,0,.3,0"/><path class="cls-3" d="M280.58,291.64h-.05c-.08,0-.16.01-.24.01,0,0-.03,0-.04,0-.06,0-.11,0-.17.03l.13-.05s0,0,.02,0c.12,0,.23,0,.34,0"/><path class="cls-3" d="M280.58,291.65c-.1,0-.2,0-.3,0h0c.08,0,.16-.02.24-.02.02,0,.03,0,.05.01"/><polygon class="cls-3" points="280.58 293.62 280.56 293.63 280.53 293.62 280.53 293.61 280.54 293.61 280.58 293.62"/><polygon class="cls-3" points="280.56 293.63 280.54 293.64 280.54 293.62 280.56 293.63"/><polygon class="cls-3" points="280.54 293.66 280.52 293.65 280.52 293.64 280.53 293.64 280.54 293.66"/><polygon class="cls-3" points="280.53 293.65 280.55 293.66 280.53 293.67 280.53 293.65"/><polygon class="cls-3" points="280.54 293.6 280.54 293.61 280.54 293.61 280.54 293.6"/><polygon class="cls-3" points="280.53 293.58 280.54 293.57 280.54 293.6 280.53 293.6 280.53 293.59 280.53 293.58"/><rect class="cls-3" x="280.52" y="293.61" width="0" height=".01"/><polygon class="cls-3" points="280.54 293.62 280.54 293.64 280.53 293.63 280.54 293.62"/><rect class="cls-3" x="280.52" y="293.6" width="0" height="0"/><polygon class="cls-3" points="280.54 293.62 280.53 293.63 280.53 293.62 280.54 293.62"/><polygon class="cls-3" points="280.53 293.63 280.54 293.64 280.53 293.64 280.53 293.63"/><rect class="cls-3" x="280.51" y="293.59" width=".01" height="0"/><rect class="cls-3" x="280.51" y="293.6" width=".01" height="0"/><polygon class="cls-3" points="280.53 293.63 280.53 293.64 280.51 293.64 280.5 293.64 280.5 293.63 280.51 293.62 280.53 293.62 280.53 293.63"/><rect class="cls-3" x="280.51" y="293.61" width=".01" height=".01"/><rect class="cls-3" x="280.51" y="293.64" width=".01" height="0"/><polygon class="cls-3" points="280.53 293.65 280.53 293.67 280.51 293.67 280.5 293.66 280.5 293.65 280.51 293.65 280.53 293.65"/><polygon class="cls-3" points="280.53 293.67 280.53 293.68 280.51 293.67 280.53 293.67"/><polygon class="cls-3" points="280.53 293.68 280.51 295.56 280.49 295.56 280.5 293.67 280.51 293.67 280.53 293.68"/><path class="cls-3" d="M279.48,291.94l1.03,1.64h0l-1.04-1.64s0,0,.02,0"/><rect class="cls-3" x="280.51" y="293.59" width="0" height="0"/><polygon class="cls-3" points="280.51 293.62 280.51 293.63 280.51 293.62 280.51 293.62"/><rect class="cls-3" x="280.49" y="295.56" width=".03" height=".02"/><rect class="cls-3" x="280.49" y="295.58" width=".03" height=".03"/><rect class="cls-3" x="280.49" y="295.61" width=".03" height=".02"/><polygon class="cls-3" points="280.51 295.63 280.51 295.7 280.49 295.69 280.49 295.63 280.51 295.63"/><polygon class="cls-3" points="280.49 295.69 280.51 295.7 280.49 295.72 280.49 295.69"/><polygon class="cls-3" points="280.51 295.7 280.51 296.92 280.48 296.96 280.49 295.72 280.51 295.7"/><rect class="cls-3" x="280.51" y="293.64" width="0" height="0"/><rect class="cls-3" x="280.51" y="293.61" width="0" height=".01"/><rect class="cls-3" x="280.51" y="293.6" width="0" height="0"/><polygon class="cls-3" points="280.51 293.66 280.52 293.67 280.51 293.67 280.51 293.66"/><polygon class="cls-3" points="280.51 296.92 280.51 297.05 280.48 297.01 280.48 296.96 280.51 296.92"/><polygon class="cls-3" points="280.48 297.01 280.51 297.05 280.27 364.1 279.96 364.26 280.48 297.01"/><polygon class="cls-3" points="280.51 293.59 280.51 293.6 280.5 293.59 280.51 293.59"/><path class="cls-3" d="M280.48,293.63l-1.84.48c-.06-.19-.09-.38-.08-.59v-.22s0-.03,0-.03c.02-.13.05-.25.11-.36l1.81.68h.02v.02h-.04s.02.01.02.01h0s-.01,0-.01,0Z"/><rect class="cls-3" x="280.5" y="293.61" width="0" height=".01"/><polygon class="cls-3" points="280.51 293.62 280.51 293.63 280.49 293.63 280.5 293.62 280.51 293.62"/><polygon class="cls-3" points="280.51 293.63 280.51 293.64 280.5 293.64 280.49 293.63 280.51 293.63"/><rect class="cls-3" x="280.5" y="293.64" width="0" height="0"/><polygon class="cls-3" points="280.51 293.65 280.51 293.66 280.51 293.67 280.49 293.68 280.47 293.68 280.5 293.65 280.51 293.65"/><path class="cls-3" d="M280.51,293.67l-.02,1.89c-.21,0-.41-.04-.61-.12-.19-.07-.36-.16-.52-.28l1.13-1.49h.02Z"/><path class="cls-3" d="M279.46,291.95l1.04,1.64h-.02l-1.81-.69c.02-.08.06-.15.09-.22l.05-.08.15-.19c.14-.19.32-.34.5-.46"/><polygon class="cls-3" points="280.5 293.61 280.5 293.62 280.49 293.62 280.47 293.6 280.5 293.61"/><polygon class="cls-3" points="280.5 293.64 280.5 293.65 280.47 293.66 280.49 293.64 280.5 293.64"/><polygon class="cls-3" points="280.5 293.62 280.49 293.63 280.49 293.62 280.5 293.62"/><path class="cls-3" d="M280.5,293.65l-.03.03-1.82.47s-.01-.03-.01-.04l1.84-.48h.01s-.02.03-.02.03h.03Z"/><polygon class="cls-3" points="280.49 293.63 280.5 293.64 280.49 293.64 280.49 293.63"/><polygon class="cls-3" points="278.67 292.9 280.49 293.59 278.67 292.91 278.67 292.9"/><polygon class="cls-3" points="280.49 293.68 279.35 295.16 279.34 295.16 280.47 293.68 280.49 293.68"/><path class="cls-3" d="M280.49,295.56v.02c-.22,0-.44-.05-.65-.13l-.26-.1h-.02c-.08-.05-.15-.1-.22-.16v-.03c.17.12.34.21.53.28.2.08.4.12.61.12"/><path class="cls-3" d="M280.49,295.58v.03c-.23,0-.45-.05-.67-.14-.04,0-.07-.02-.1-.04-.05-.03-.1-.05-.14-.08l.26.1c.21.08.43.12.65.13"/><path class="cls-3" d="M280.49,295.61v.02h-.02c-.07,0-.15,0-.22-.01h-.02l-.35-.12s-.04,0-.06-.03c.22.09.44.13.67.14"/><path class="cls-3" d="M280.49,295.63v.07l-.24-.08c.07.01.15.01.22.01h.02Z"/><path class="cls-3" d="M280.49,295.69v.02l-.79.21-.44-.62.04-.06h0s0,0,0,0c.26.2.58.32.92.36h.02l.24.08Z"/><polygon class="cls-3" points="280.49 295.72 280.48 296.96 280.46 296.97 279.7 295.92 280.49 295.72"/><polygon class="cls-3" points="280.48 296.96 280.48 297.01 280.46 296.98 280.48 296.96"/><path class="cls-3" d="M280.48,297.01l-.51,67.26-1.8.94c-.11-.26-.17-.52-.17-.81v-1.33s.31-.16.31-.16l.24-63.38,1.92-2.54.02.03Z"/><path class="cls-3" d="M280.47,293.68l-1.12,1.49c-.33-.26-.58-.61-.7-1.01l1.82-.47Z"/><polygon class="cls-3" points="280.46 296.98 278.54 299.52 278.54 299.49 278.49 299.55 278.52 296.28 278.57 296.21 279.7 295.92 280.46 296.98"/><path class="cls-3" d="M280.3,291.65h0s-.02,0-.03,0c0,0,.03,0,.04,0"/><path class="cls-3" d="M280.29,291.66c-.08.02-.17.03-.25.05l-.12.03s.08-.03.13-.04c0,0,.03,0,.04,0,.05,0,.11-.02.17-.03,0,0,.02,0,.03,0"/><path class="cls-3" d="M280.26,291.66c-.06,0-.12.02-.17.03.06-.02.11-.03.17-.03"/><path class="cls-3" d="M279.88,295.5l.35.12c-.33-.05-.65-.17-.92-.36l.12.04s0,.01.02.01c.08.06.17.1.27.13.03.02.06.04.1.04.02.02.04.02.06.03"/><path class="cls-3" d="M280.22,291.64l-.13.05s-.03,0-.04,0c-.05,0-.09.02-.14.03,0,0-.03,0-.04.02-.02,0-.04,0-.06.02l-.16.04c.18-.08.36-.14.56-.17"/><path class="cls-3" d="M280.05,291.7s-.09.02-.13.04c-.02,0-.03,0-.04,0h0s.03-.02.04-.02c.05,0,.09-.03.14-.03"/><path class="cls-3" d="M279.88,291.75s0,0-.02,0h.01s0,0,0,0Z"/><path class="cls-3" d="M279.88,291.75h-.01s-.05.02-.05.02c.02,0,.04-.02.06-.02"/><path class="cls-3" d="M279.86,291.75c-.1.03-.19.07-.27.11.07-.04.15-.08.23-.1h.05Z"/><path class="cls-3" d="M279.59,291.86c.09-.04.18-.08.27-.11-.14.05-.26.11-.38.19h0s.08-.06.12-.08"/><polygon class="cls-3" points="279.83 291.22 279.39 291.8 278.77 290.83 279.83 291.22"/><path class="cls-3" d="M279.66,291.8l.16-.04c-.08.02-.16.06-.23.1-.04.02-.08.04-.12.07v-.03s.12-.07.19-.1"/><path class="cls-3" d="M279.8,366.56l-86.53,44.84c-.29.15-.59.22-.91.22-.56,0-1.12-.25-1.51-.7-.58-.7-.61-1.7-.07-2.44l-.1.51c-.17.9.31,1.79,1.14,2.16.26.12.53.17.8.17.6,0,1.18-.28,1.57-.78l2.3-3.02,81.68-42.3c.17.38.46.72.85.93l.79.43Z"/><polygon class="cls-3" points="279.25 295.3 279.7 295.92 278.57 296.21 279.25 295.3"/><path class="cls-3" d="M279.43,291.86l.23-.06c-.07.03-.14.06-.2.1l-.03-.04Z"/><path class="cls-3" d="M279.58,295.35s.09.05.14.08c-.1-.03-.19-.07-.27-.13l.11.05h.02Z"/><path class="cls-3" d="M279.56,295.35l-.11-.05s-.02,0-.02-.01c-.04-.02-.08-.05-.12-.07l.03-.03c.07.06.14.11.22.16"/><path class="cls-3" d="M279.47,291.93h0s0,.02-.02.02h0s0-.02,0-.02Z"/><path class="cls-3" d="M279.46,291.9v.03s0,0,0,0l-.02-.03s0,0,.02,0"/><path class="cls-3" d="M279.46,291.94h0c-.19.13-.36.29-.5.47l-.15.19s.05-.09.08-.13l.03-.04c.06-.09.13-.16.2-.24.11-.11.22-.2.35-.26"/><path class="cls-3" d="M279.46,291.9s-.01,0-.02,0l-.03-.04h.02s.03.03.03.03Z"/><path class="cls-3" d="M279.46,291.94c-.13.06-.24.15-.35.26,0,0-.02,0-.04.03l.05-.06c.1-.11.2-.19.32-.26l.02.03Z"/><path class="cls-3" d="M279.41,291.87l.03.04c-.12.07-.22.15-.32.26l.2-.27.09-.02Z"/><polygon class="cls-3" points="279.43 291.86 279.41 291.87 279.38 291.82 279.39 291.8 279.43 291.86"/><path class="cls-3" d="M279.43,295.29l-.12-.04s0,0,0,0v-.02s.09.05.13.07"/><polygon class="cls-3" points="279.38 291.82 279.41 291.87 279.32 291.89 279.38 291.82"/><polygon class="cls-3" points="278.77 290.83 279.39 291.8 279.38 291.82 278.74 290.81 278.77 290.83"/><polygon class="cls-3" points="278.74 290.81 279.38 291.82 279.32 291.89 278.6 292.08 278.64 290.78 278.74 290.81"/><path class="cls-3" d="M279.35,295.16v.03s-.02,0-.02,0v-.02h.02Z"/><path class="cls-3" d="M279.34,295.16v.02c-.19-.13-.35-.3-.47-.49l-.24-.37s-.03-.06-.04-.09c0-.02,0-.05-.02-.07l.07-.02c.12.4.36.76.7,1.01"/><path class="cls-3" d="M279.34,295.19l-.03.03s0,0,0,0l.03-.03s.01,0,.01,0"/><path class="cls-3" d="M279.33,295.18l-.03.03c-.14-.11-.27-.23-.37-.36l-.07-.1c-.06-.09-.12-.18-.16-.27-.03-.05-.05-.11-.07-.16l.24.36c.13.2.29.36.46.49"/><path class="cls-3" d="M279.32,291.89l-.2.27c-.1.08-.18.17-.26.28-.09.11-.16.24-.21.35l-.05.07h-.04s.03-.79.03-.79l.72-.19Z"/><path class="cls-3" d="M279.31,295.22v.02h-.02s0-.03,0-.03c0,0,0,0,0,.01"/><path class="cls-3" d="M279.3,295.21v.02c-.09-.05-.16-.11-.23-.19l-.15-.2c.11.14.24.26.37.36"/><polygon class="cls-3" points="279.29 295.23 279.29 295.24 279.28 295.24 279.29 295.23"/><polygon class="cls-3" points="279.29 295.24 279.25 295.3 279.24 295.29 279.28 295.24 279.29 295.24"/><path class="cls-3" d="M279.29,295.23h-.01s-.1-.03-.1-.03l-.11-.16c.07.08.14.14.22.19"/><polygon class="cls-3" points="279.28 295.24 279.24 295.29 279.19 295.2 279.28 295.24"/><polygon class="cls-3" points="279.24 295.29 279.26 295.3 278.57 296.21 278.54 296.22 279.24 295.29"/><polygon class="cls-3" points="279.19 295.2 279.24 295.29 278.55 296.22 278.52 296.23 278.53 294.96 279.19 295.2"/><path class="cls-3" d="M279.08,295.04l.11.16-.66-.25v-.78h.02l.04.06h0c.06.2.15.38.27.55.07.1.15.19.23.26"/><path class="cls-3" d="M279.13,292.17l-.05.06-.02.02c-.15.15-.27.33-.36.51l-.03.04c.05-.12.12-.25.21-.36.08-.11.16-.2.26-.28"/><path class="cls-3" d="M279.12,292.2c-.07.08-.14.15-.2.24l.14-.19.02-.02s.03-.03.04-.03"/><path class="cls-3" d="M278.93,294.85l.15.2c-.08-.07-.16-.16-.23-.26-.12-.17-.21-.35-.27-.54l.03.05s0,.02.02.03c.02.05.04.11.07.16.04.1.09.19.16.26.02.03.04.07.07.1"/><path class="cls-3" d="M279.06,292.25l-.14.19-.03.04s-.06.08-.08.13l-.05.08-.05.07h-.02c.1-.18.22-.35.36-.5"/><path class="cls-3" d="M278.86,294.75l.07.1s-.05-.07-.07-.1"/><path class="cls-3" d="M278.7,294.48c.04.09.1.18.16.27-.07-.08-.12-.17-.16-.27"/><polygon class="cls-3" points="278.78 287.16 278.78 287.19 278.76 287.16 278.76 287.14 278.78 287.16"/><polygon class="cls-3" points="278.65 290.63 278.77 290.83 278.74 290.81 278.65 290.67 278.65 290.63"/><polygon class="cls-3" points="242.69 230.23 278.76 287.14 278.76 287.16 242.64 230.33 242.69 230.23"/><path class="cls-3" d="M278.76,287.16l-.11,3.47-38.23-60.31.91-1.74c.31.15.56.38.75.68l.61.98-.05.1,36.12,56.83Z"/><path class="cls-3" d="M278.76,292.68c-.03.07-.07.14-.09.22h-.02c.02-.06.04-.1.06-.15l.05-.07Z"/><polygon class="cls-3" points="278.74 290.81 278.64 290.78 278.65 290.67 278.74 290.81"/><path class="cls-3" d="M278.71,292.75c-.02.05-.04.09-.06.14h0s.03-.09.05-.13h.02Z"/><path class="cls-3" d="M278.66,292.8l.03-.04s-.04.08-.05.13h0s.02-.06.03-.09"/><path class="cls-3" d="M278.67,292.9h0c-.06.13-.09.25-.11.37v-.12c.02-.09.05-.18.09-.26h.02Z"/><polygon class="cls-3" points="278.67 292.9 278.65 292.9 278.65 292.89 278.67 292.9"/><path class="cls-3" d="M278.66,292.8s-.02.05-.03.08h-.02s.05-.08.05-.08Z"/><polygon class="cls-3" points="278.65 292.89 278.65 292.9 278.64 292.89 278.65 292.89"/><polygon class="cls-3" points="278.65 290.63 278.65 290.67 240.37 230.43 240.42 230.32 278.65 290.63"/><path class="cls-3" d="M278.65,290.67v.11s-2.96-1.12-2.96-1.12l-36.27-57.24h-.12s-.6-.93-.6-.93c-.18-.28-.27-.59-.29-.93l2.01-.25h0s-.06.12-.06.12l38.29,60.24Z"/><path class="cls-3" d="M278.64,292.89h0c-.04.09-.07.18-.09.27,0-.03,0-.06,0-.09.02-.06.04-.12.07-.18"/><polygon class="cls-3" points="278.64 290.78 278.6 292.08 277.4 292.39 275.69 289.68 275.71 289.69 275.69 289.66 278.64 290.78"/><path class="cls-3" d="M278.63,294.11s0,.03.01.04l-.07.02s0-.03,0-.04l.07-.02Z"/><path class="cls-3" d="M278.63,292.88h.01s-.01,0-.01,0c0,0,0,0,0,0"/><path class="cls-3" d="M278.63,292.89h.01c-.03.06-.05.12-.07.18,0-.06.03-.12.06-.18"/><path class="cls-3" d="M278.59,294.24s.03.06.04.09c0,0,0-.02-.02-.03,0-.02,0-.04-.02-.06"/><path class="cls-3" d="M278.63,292.88s0,0,0,0h-.03s0-.02,0-.02h.02Z"/><path class="cls-3" d="M278.6,292.88h.03c-.03.07-.05.13-.06.19v-.15l.03-.04Z"/><path class="cls-3" d="M278.63,294.11l-.07.02s-.02-.09-.03-.14c0-.01,0-.02,0-.03v-.37c0-.1,0-.2.03-.29v.22c-.02.21,0,.4.07.59"/><path class="cls-3" d="M278.61,294.3l-.03-.05h0s-.02-.06-.02-.08h0s.02.05.02.07c.01.02.02.04.02.06"/><polygon class="cls-3" points="278.61 292.87 278.6 292.88 278.57 292.87 278.57 292.86 278.61 292.87"/><polygon class="cls-3" points="278.6 292.88 278.57 292.92 278.57 292.87 278.6 292.88"/><polygon class="cls-3" points="278.6 292.08 278.57 292.86 277.44 292.43 277.43 292.43 277.4 292.39 278.6 292.08"/><path class="cls-3" d="M278.57,294.17s0,.04.02.07l-.04-.06h.02Z"/><path class="cls-3" d="M278.57,293.07s-.02.06,0,.09c-.03.06-.04.13-.05.2,0-.1.03-.19.06-.29"/><path class="cls-3" d="M278.57,294.13s0,.03,0,.04h0s0-.03,0-.04h0Z"/><polygon class="cls-3" points="278.57 292.86 278.57 292.87 277.44 292.43 278.57 292.86"/><polygon class="cls-3" points="278.57 292.87 278.57 292.92 278.12 293.52 277.44 292.44 278.57 292.87"/><path class="cls-3" d="M278.12,293.52l.45-.6v.15c-.03.1-.05.19-.06.29-.02.1-.03.21-.02.32,0,.08,0,.16.02.24,0,.04,0,.08.02.12v.12h-.02l-.39-.62Z"/><path class="cls-3" d="M278.52,293.35c0-.07.02-.14.05-.2v.15c-.02.09-.03.19-.03.29v.37s0-.02,0-.03c-.02-.09-.03-.18-.03-.27,0-.11,0-.22.02-.32"/><path class="cls-3" d="M278.54,293.99s.02.09.03.14h0s-.02-.07-.02-.11v-.03Z"/><path class="cls-3" d="M278.56,294.13s0,.03,0,.04h-.02s0,0,0,0v-.02h.02Z"/><polygon class="cls-3" points="278.54 296.22 278.57 296.21 278.52 296.28 278.52 296.26 278.54 296.22"/><path class="cls-3" d="M278.54,294.02s0,.07.02.11h-.02s0-.11,0-.11Z"/><polygon class="cls-3" points="278.54 294.16 278.55 294.18 278.54 294.18 278.54 294.16"/><polygon class="cls-3" points="278.54 296.22 278.52 296.26 278.52 296.23 278.54 296.22"/><polygon class="cls-3" points="278.54 299.49 278.54 299.52 278.49 299.58 278.49 299.55 278.54 299.49"/><polygon class="cls-3" points="278.54 299.52 278.3 362.9 278 363.06 278.49 299.58 278.54 299.52"/><path class="cls-3" d="M278.53,293.93s0,.02,0,.03c0,0,0,.02,0,.03v.03s-.02-.08-.02-.12c0,0,0,.02,0,.03"/><polygon class="cls-3" points="278.54 294.14 278.54 294.16 278.52 294.14 278.54 294.14"/><polygon class="cls-3" points="278.54 294.16 278.54 294.18 277.39 294.47 277.44 294.41 278.52 294.14 278.54 294.16"/><polygon class="cls-3" points="278.54 294.18 278.53 294.96 277.36 294.51 277.39 294.47 278.54 294.18"/><path class="cls-3" d="M278.5,293.67c0,.09,0,.18.03.27,0,0,0-.02,0-.03-.01-.08-.02-.16-.02-.24"/><polygon class="cls-3" points="278.53 294.96 278.52 296.23 275.49 297 275.54 296.95 275.51 296.96 277.36 294.51 278.53 294.96"/><polygon class="cls-3" points="278.12 293.52 278.52 294.14 277.44 294.41 278.12 293.52"/><polygon class="cls-3" points="278.52 296.28 192.62 409.33 192.63 409.28 278.52 296.26 278.52 296.28"/><polygon class="cls-3" points="192.62 409.33 278.52 296.28 278.49 299.55 199.22 403.87 199.26 403.85 196.49 407.5 192.36 409.64 192.63 409.28 192.62 409.33"/><polygon class="cls-3" points="278.52 296.23 278.52 296.26 192.63 409.28 193.43 404.97 196.08 401.48 196.07 401.55 275.49 297 278.52 296.23"/><polygon class="cls-3" points="199.22 403.87 278.49 299.55 278.49 299.58 199.26 403.85 199.22 403.87"/><polygon class="cls-2" points="278.49 299.58 278 363.06 199.26 403.85 278.49 299.58"/><path class="cls-3" d="M278.16,365.2l-81.68,42.3,2.78-3.65,78.74-40.79v1.33c0,.29.05.55.16.81"/><polygon class="cls-3" points="277.44 292.43 278.12 293.52 277.44 294.41 277.23 294.46 274.11 293.29 274.13 293.28 274.05 293.25 277.34 292.41 277.44 292.43"/><polygon class="cls-3" points="277.43 292.43 277.44 292.44 277.34 292.4 277.36 292.4 277.43 292.43"/><polygon class="cls-3" points="277.44 294.41 277.39 294.47 277.31 294.49 277.23 294.46 277.44 294.41"/><polygon class="cls-3" points="277.4 292.39 277.43 292.43 277.36 292.4 277.4 292.39"/><polygon class="cls-3" points="275.69 289.68 277.4 292.39 277.36 292.4 143.97 241.93 148.18 241.42 152.16 242.93 151.97 242.95 275.69 289.68"/><polygon class="cls-3" points="277.39 294.47 277.36 294.51 277.31 294.49 277.39 294.47"/><path class="cls-3" d="M277.36,294.51l-1.85,2.44-63.12,16.31-.02.1-1.12.29c-.17.04-.34.06-.5.06-.15,0-.29-.02-.43-.05l.37-1.99.06.07,66.57-17.26.05.02Z"/><polygon class="cls-3" points="277.36 292.4 277.34 292.41 143.76 241.95 143.96 241.93 277.36 292.4"/><polygon class="cls-3" points="143.76 241.95 277.34 292.41 274.05 293.25 151 246.7 151.14 246.84 146.85 245.22 143.53 241.77 143.96 241.93 143.76 241.95"/><polygon class="cls-3" points="277.31 294.49 210.75 311.75 210.69 311.68 210.69 311.67 277.23 294.46 277.31 294.49"/><path class="cls-3" d="M277.23,294.46l-66.55,17.21h0s-1.37-1.41-1.37-1.41c.24-.24.53-.4.87-.49l1.12-.29.07.07,62.73-16.26,3.12,1.17Z"/><polygon class="cls-3" points="275.69 289.66 275.71 289.69 275.69 289.68 275.67 289.65 275.69 289.66"/><polygon class="cls-3" points="239.42 232.42 275.69 289.66 275.67 289.65 239.3 232.43 239.42 232.42"/><polygon class="cls-3" points="275.69 289.68 151.97 242.95 152.16 242.93 275.67 289.65 275.69 289.68"/><polygon class="cls-5" points="275.67 289.65 152.16 242.93 239.3 232.43 275.67 289.65"/><polygon class="cls-3" points="275.54 296.95 275.49 297.01 275.46 297.01 275.51 296.96 275.54 296.95"/><polygon class="cls-3" points="275.51 296.96 275.46 297.02 212.37 313.37 212.39 313.27 275.51 296.96"/><polygon class="cls-3" points="275.49 297.01 196.07 401.55 196.08 401.48 275.46 297.01 275.49 297.01"/><polygon class="cls-5" points="275.46 297.01 196.08 401.48 212.37 313.37 275.46 297.01"/><polygon class="cls-3" points="274.13 293.28 274.11 293.29 274.03 293.26 274.05 293.25 274.13 293.28"/><polygon class="cls-3" points="274.03 293.26 274.11 293.29 211.38 309.55 211.31 309.49 274.03 293.26"/><polygon class="cls-3" points="274.05 293.25 274.03 293.26 151.14 246.84 151 246.7 274.05 293.25"/><polygon class="cls-2" points="151.14 246.84 274.03 293.26 211.31 309.49 151.14 246.84"/><path class="cls-3" d="M241.33,228.58l-.91,1.74h0s-2.01.24-2.01.24c-.03-.36.05-.71.22-1.04l.54-1.04,1.01-.12c.4-.05.81.03,1.15.23"/><path class="cls-3" d="M238.7,231.48l.6.95-87.14,10.5-3.98-1.51,90.22-10.86c.02.33.12.65.3.93"/><path class="cls-3" d="M239.17,228.47l-.54,1.05c-.17.33-.25.69-.22,1.04l-90.22,10.86-3.95-1.5s-.03,0-.04,0l94.97-11.45Z"/><path class="cls-3" d="M212.37,313.37l-16.29,88.12-2.65,3.49,16.88-91.3c.15.03.29.05.43.05.17,0,.33-.02.5-.06l1.12-.3Z"/><path class="cls-3" d="M151.14,246.84l60.17,62.65-1.12.29c-.33.09-.63.26-.87.49l-62.47-65.04,4.29,1.62Z"/><path class="cls-3" d="M210.69,311.68l-.37,1.99c-.36-.08-.72-.28-.98-.55l-.77-.8.19-1c.08-.41.28-.78.57-1.05l1.37,1.42Z"/><path class="cls-3" d="M210.31,313.67l-16.88,91.3-2.64,3.48s0,0,0,.02l17.78-96.15.77.8c.27.28.62.47.98.55"/><path class="cls-3" d="M146.85,245.22l62.47,65.04c-.3.28-.49.64-.57,1.05l-.19,1-66.45-69.19c-.64-.67-.74-1.68-.23-2.45.49-.76,1.45-1.07,2.3-.77l-.67.08c-.9.11-1.61.82-1.71,1.72-.11.9.41,1.76,1.26,2.08l3.78,1.43Z"/><path class="cls-3" d="M196.49,407.5l-2.3,3.02c-.38.5-.97.78-1.57.78-.27,0-.54-.05-.8-.17-.84-.36-1.31-1.26-1.14-2.16l.1-.51s0,0,0-.02l2.64-3.48-.8,4.3-.28.36,4.13-2.14Z"/><path class="cls-3" d="M148.18,241.42l-4.22.51-.43-.17,3.32,3.46-3.78-1.43c-.85-.32-1.37-1.18-1.26-2.08.11-.91.82-1.62,1.71-1.72l.67-.08s.03,0,.04,0l3.95,1.5Z"/></g></g><path class="cls-3" d="M283.47,561.71c-74.32,0-144.2-28.94-196.75-81.5C34.16,427.66,5.22,357.79,5.22,283.46s28.94-144.2,81.5-196.75C139.27,34.16,209.14,5.22,283.47,5.22s144.2,28.94,196.75,81.5c52.55,52.55,81.5,122.43,81.5,196.75s-28.94,144.2-81.5,196.75c-52.55,52.55-122.43,81.5-196.75,81.5M283.47,18.02C137.1,18.02,18.02,137.1,18.02,283.46s119.08,265.44,265.44,265.44,265.44-119.08,265.44-265.44S429.83,18.02,283.47,18.02"/><path class="cls-5" d="M519.64,328.22c10.39-5.67,13.63-19.79,13.63-19.79,0,0-16.05-1.63-25.72,5.88-3.03,2.36-5.83,6.48-8,10.35,1.65-7.9,2.75-15.99,3.29-24.2,3.76-.65,12.28-2.8,20.73-9.55,9.07-7.24,9.79-21.43,9.79-21.43,0,0-15.76,1.17-23.81,10.06-2.6,2.88-4.63,7.51-6.09,11.72.41-8.68.14-17.29-.71-25.75,3.58-1.3,11.34-4.83,18.29-12.72,7.51-8.52,5.8-22.33,5.8-22.33,0,0-15.02,3.8-21.27,13.75-2.06,3.28-3.24,8.22-3.92,12.59-1.3-8.77-3.21-17.37-5.65-25.71,3.02-1.69,10.27-6.43,15.86-15.6,5.81-9.51,1.81-22.54,1.81-22.54,0,0-13.85,6.22-18.2,16.89-1.61,3.98-1.79,9.8-1.58,14.45-2.96-8.94-6.53-17.55-10.56-25.76,2.48-1.97,8.95-7.83,12.91-17.96,3.98-10.16-2.1-22.07-2.1-22.07,0,0-12.3,8.36-14.68,19.4-.95,4.45.1,10.72,1.18,15.32-4.62-8.77-9.76-17.03-15.27-24.64,2.08-2.37,7.27-9.11,9.36-19.48,2.11-10.49-5.78-20.94-5.78-20.94,0,0-10.46,10.17-10.88,21.23-.16,4.35,1.81,10.03,3.61,14.26-6.04-7.81-12.45-14.87-19.06-21.01,1.6-2.62,5.48-10.02,5.73-20.42.26-10.48-9.15-19.22-9.15-19.22,0,0-8.36,11.59-6.87,22.33.61,4.44,3.75,9.91,6.28,13.73-2.36-2.04-4.73-3.97-7.12-5.77-5.37-4.33-10.66-8.15-15.8-11.55.94-2.25,3.89-10.42,2.26-21.16-1.54-10.16-12.1-17-12.1-17,0,0-6.11,12.61-2.84,22.72,1.55,4.8,6.52,10.32,9.68,13.5-4.48-2.85-8.82-5.34-12.99-7.55-.08.49-.21.98-.35,1.47,4.9,2.73,10.04,5.87,15.35,9.49-4.26-1.44-11.25-3.4-16.17-2.7-10.51,1.5-19.17,12.51-19.17,12.51,0,0,10.79,6.49,20.59,3.4,9.95-3.12,15.93-8.98,17.83-11.08,4.07,2.89,8.21,6.05,12.4,9.53,3.73,2.91,7.44,6.12,11.09,9.62-4-2.2-10.81-5.51-15.96-5.68-10.83-.36-21.48,9.18-21.48,9.18,0,0,9.69,8.42,20.09,7.06,10.65-1.39,17.72-6.29,19.93-8.02,6.57,6.61,12.9,14.12,18.79,22.38-3.7-2.88-9.32-6.74-13.99-7.72-10.83-2.28-23.21,5.41-23.21,5.41,0,0,8.24,10.19,18.92,10.66,10.48.47,18.22-2.88,21.08-4.34,5.12,7.58,9.86,15.72,14.08,24.34-3.19-3.41-7.63-7.53-11.71-9.17-10.47-4.21-24.28,1.33-24.28,1.33,0,0,6.47,11.69,17.13,14.06,10.02,2.24,18.15.49,21.55-.51,3.79,8.38,7.09,17.17,9.75,26.24-2.6-3.97-6.31-8.86-10.1-11.21-9.77-6.08-24.63-2.97-24.63-2.97,0,0,4.43,12.9,14.72,17.17,9.67,4.03,18.15,3.71,21.76,3.31,2.35,9.09,4.04,18.45,5,27.98-1.91-4.52-4.85-10.35-8.35-13.5-8.75-7.84-24.24-7.34-24.24-7.34,0,0,2.17,13.74,11.75,19.86,9.07,5.8,17.7,6.96,21.35,7.18.57,8.86.49,17.84-.35,26.88-1.15-4.7-2.99-10.43-5.73-13.92-7.4-9.44-23.06-11.68-23.06-11.68,0,0-.26,14.19,8.29,22.04,7.87,7.24,16.09,9.98,19.87,10.92-.89,8.68-2.44,17.18-4.55,25.44-.32-4.9-1.17-10.91-3.29-14.86-5.76-10.79-21.1-15.82-21.1-15.82,0,0-2.77,14.23,4.42,23.62,6.55,8.56,14.2,12.77,17.89,14.44-2.41,7.98-5.32,15.72-8.69,23.18.47-4.81.58-10.5-.76-14.59-3.89-11.87-18.4-19.63-18.4-19.63,0,0-5.3,13.8.26,24.51,4.95,9.54,11.7,15.1,15.18,17.52-3.66,7.25-7.71,14.21-12.1,20.81,1.24-4.6,2.21-9.95,1.62-14.08-1.8-12.61-15-22.99-15-22.99,0,0-7.79,12.93-4.09,24.68,3.23,10.32,8.92,17.06,12.03,20.16-5.03,6.86-10.37,13.28-15.95,19.2,2.17-4.54,4.31-10.09,4.46-14.57.42-12.99-11.02-25.76-11.02-25.76,0,0-10.09,11.61-8.47,24.07,1.46,11.19,6.14,19.08,8.68,22.64-6.26,6.03-12.72,11.44-19.26,16.12,3.04-4.22,6.28-9.52,7.22-14.08,2.72-12.98-6.51-27.84-6.51-27.84,0,0-12.21,9.88-12.78,22.7-.52,11.42,2.76,20.12,4.68,24.2-2.51,1.58-5.02,3.06-7.54,4.42-4.55,2.67-9.01,5.02-13.35,7.14,3.58-3.57,7.33-7.98,8.98-12.08,5.03-12.57-1.6-29.13-1.6-29.13,0,0-14.03,7.76-16.87,20.54-2.49,11.13-.86,20.32.34,24.87-7.96,3.4-15.39,5.95-22.07,7.87,4.18-2.94,8.63-6.65,10.98-10.43,7.29-11.74,3.55-29.56,3.55-29.56,0,0-15.46,5.31-20.59,17.65-4.43,10.67-4.47,20.13-4.08,24.94-14.79,3.35-23.6,3.95-23.6,3.95l.33,3.29.34,3.29s11.28-.71,29.59-5.57c2.43,4.06,8.05,11.87,18.11,18,11.41,6.96,27.05,2.17,27.05,2.17,0,0-7.47-16.62-20.26-21.82-3.55-1.44-8.33-1.92-12.85-1.98,6.42-2.16,13.37-4.89,20.7-8.32,3.02,3.49,9.78,10.12,20.59,14.36,12.19,4.78,26.47-2.52,26.47-2.52,0,0-10.04-14.76-23.27-17.6-3.74-.8-8.53-.42-12.98.32,2.49-1.34,5-2.76,7.55-4.28,4.01-2.22,8.05-4.73,12.05-7.5,3.57,2.88,11.17,8.01,22.17,10.22,12.58,2.54,25.12-6.93,25.12-6.93,0,0-12.19-12.54-25.45-13.03-3.59-.13-7.94.94-11.96,2.34,5.67-4.59,11.23-9.69,16.61-15.24,3.85,2.16,12.14,5.94,23.34,6.22,12.57.3,23.06-10.97,23.06-10.97,0,0-13.91-10.03-26.78-8.25-3.82.53-8.26,2.62-12.17,4.87,5.06-5.83,9.89-12.08,14.42-18.68,3.87,1.4,12.77,3.89,24.04,2.18,12.19-1.84,20.39-14.5,20.39-14.5,0,0-15.12-7.31-27.25-3.4-3.94,1.27-8.27,4.46-11.85,7.57,4.28-6.91,8.21-14.15,11.71-21.68,3.99.69,12.99,1.57,23.55-1.99,11.45-3.85,17.2-17.47,17.2-17.47,0,0-15.84-4.49-26.88,1.35-3.52,1.87-7.11,5.6-10,9.15,3.04-7.49,5.65-15.23,7.75-23.17,4,0,12.8-.72,22.34-5.92"/><path class="cls-5" d="M216.45,469.79c.39-4.82.36-14.27-4.08-24.94-5.13-12.34-20.59-17.65-20.59-17.65,0,0-3.74,17.82,3.55,29.56,2.35,3.79,6.8,7.49,10.98,10.43-6.68-1.92-14.11-4.47-22.07-7.87,1.21-4.55,2.83-13.73.34-24.87-2.85-12.78-16.87-20.54-16.87-20.54,0,0-6.63,16.56-1.6,29.13,1.65,4.1,5.39,8.51,8.97,12.08-4.34-2.11-8.8-4.47-13.35-7.14-2.51-1.36-5.02-2.84-7.53-4.42,1.92-4.07,5.19-12.78,4.68-24.2-.58-12.82-12.79-22.7-12.79-22.7,0,0-9.23,14.86-6.51,27.84.95,4.56,4.19,9.86,7.23,14.08-6.54-4.68-13.01-10.09-19.27-16.12,2.54-3.57,7.23-11.45,8.69-22.64,1.63-12.46-8.47-24.07-8.47-24.07,0,0-11.43,12.77-11.02,25.76.15,4.48,2.29,10.03,4.46,14.57-5.58-5.91-10.92-12.34-15.95-19.19,3.11-3.11,8.8-9.85,12.03-20.17,3.69-11.75-4.08-24.68-4.08-24.68,0,0-13.21,10.38-15.01,22.99-.59,4.13.38,9.48,1.62,14.08-4.38-6.6-8.44-13.55-12.1-20.81,3.48-2.42,10.24-7.98,15.18-17.52,5.57-10.71.26-24.51.26-24.51,0,0-14.51,7.77-18.4,19.63-1.34,4.09-1.23,9.78-.76,14.59-3.36-7.46-6.28-15.21-8.69-23.18,3.69-1.67,11.35-5.88,17.89-14.44,7.2-9.39,4.43-23.62,4.43-23.62,0,0-15.33,5.03-21.1,15.82-2.12,3.95-2.96,9.96-3.29,14.86-2.11-8.27-3.67-16.77-4.55-25.44,3.78-.94,12-3.69,19.87-10.92,8.55-7.85,8.29-22.04,8.29-22.04,0,0-15.65,2.24-23.05,11.68-2.75,3.49-4.59,9.22-5.73,13.91-.84-9.03-.92-18.02-.35-26.87,3.65-.22,12.28-1.38,21.35-7.18,9.58-6.12,11.75-19.86,11.75-19.86,0,0-15.49-.5-24.24,7.34-3.5,3.14-6.44,8.97-8.35,13.5.96-9.53,2.65-18.89,5-27.98,3.61.4,12.08.72,21.76-3.31,10.29-4.27,14.72-17.17,14.72-17.17,0,0-14.87-3.12-24.64,2.97-3.79,2.35-7.49,7.23-10.09,11.21,2.67-9.07,5.96-17.85,9.75-26.24,3.41,1,11.54,2.75,21.55.51,10.66-2.37,17.13-14.06,17.13-14.06,0,0-13.81-5.54-24.29-1.33-4.08,1.64-8.52,5.76-11.71,9.16,4.22-8.61,8.96-16.75,14.07-24.33,2.87,1.47,10.61,4.81,21.08,4.34,10.69-.48,18.93-10.66,18.93-10.66,0,0-12.39-7.69-23.21-5.41-4.67.98-10.29,4.83-14,7.72,5.89-8.26,12.21-15.77,18.79-22.38,2.21,1.73,9.28,6.63,19.93,8.02,10.4,1.36,20.09-7.06,20.09-7.06,0,0-10.65-9.54-21.49-9.18-5.13.16-11.95,3.47-15.95,5.68,3.64-3.5,7.35-6.71,11.09-9.62,4.19-3.49,8.33-6.64,12.4-9.53,1.9,2.1,7.88,7.96,17.83,11.08,9.8,3.08,20.58-3.4,20.58-3.4,0,0-8.66-11.01-19.17-12.51-4.91-.7-11.91,1.26-16.16,2.69,3.96-2.7,7.82-5.12,11.56-7.32.04-.52-.04-1.1-.13-1.7-3.06,1.71-6.2,3.56-9.41,5.6,3.16-3.17,8.14-8.69,9.68-13.49,3.27-10.12-2.83-22.72-2.83-22.72,0,0-10.55,6.84-12.1,17-1.63,10.74,1.32,18.91,2.26,21.16-5.14,3.4-10.43,7.22-15.81,11.55-2.39,1.8-4.76,3.73-7.11,5.77,2.53-3.81,5.67-9.28,6.28-13.73,1.49-10.74-6.87-22.33-6.87-22.33,0,0-9.41,8.74-9.15,19.23.25,10.4,4.13,17.8,5.73,20.42-6.61,6.14-13.03,13.2-19.06,21.01,1.79-4.23,3.76-9.92,3.6-14.26-.41-11.06-10.87-21.23-10.87-21.23,0,0-7.89,10.45-5.78,20.94,2.09,10.37,7.28,17.11,9.36,19.48-5.52,7.62-10.65,15.87-15.27,24.64,1.09-4.6,2.13-10.87,1.17-15.32-2.37-11.04-14.68-19.4-14.68-19.4,0,0-6.08,11.91-2.1,22.07,3.96,10.13,10.44,15.99,12.91,17.96-4.02,8.21-7.59,16.82-10.55,25.76.2-4.66.02-10.48-1.59-14.45-4.34-10.67-18.19-16.89-18.19-16.89,0,0-4,13.04,1.81,22.54,5.59,9.17,12.84,13.91,15.87,15.6-2.45,8.34-4.35,16.93-5.66,25.7-.68-4.36-1.85-9.3-3.92-12.58-6.25-9.95-21.27-13.75-21.27-13.75,0,0-1.71,13.82,5.8,22.33,6.95,7.89,14.71,11.42,18.29,12.72-.85,8.46-1.11,17.06-.71,25.75-1.45-4.21-3.48-8.85-6.08-11.72-8.05-8.9-23.81-10.06-23.81-10.06,0,0,.72,14.19,9.79,21.43,8.45,6.75,16.97,8.9,20.74,9.55.54,8.21,1.65,16.3,3.29,24.2-2.17-3.87-4.97-7.99-8-10.35-9.66-7.51-25.72-5.88-25.72-5.88,0,0,3.24,14.12,13.64,19.79,9.54,5.2,18.34,5.91,22.34,5.92,2.1,7.94,4.71,15.69,7.76,23.18-2.9-3.55-6.48-7.28-10-9.15-11.05-5.84-26.88-1.35-26.88-1.35,0,0,5.76,13.62,17.2,17.47,10.57,3.55,19.57,2.68,23.56,1.99,3.5,7.54,7.43,14.78,11.71,21.69-3.57-3.11-7.92-6.31-11.85-7.57-12.13-3.91-27.25,3.4-27.25,3.4,0,0,8.2,12.66,20.39,14.51,11.26,1.7,20.16-.78,24.04-2.18,4.52,6.6,9.36,12.85,14.41,18.68-3.9-2.26-8.35-4.34-12.17-4.87-12.88-1.78-26.78,8.25-26.78,8.25,0,0,10.49,11.27,23.06,10.97,11.19-.27,19.49-4.06,23.34-6.22,5.38,5.56,10.94,10.66,16.61,15.24-4.02-1.39-8.38-2.47-11.96-2.34-13.26.49-25.45,13.03-25.45,13.03,0,0,12.53,9.47,25.11,6.93,11-2.22,18.59-7.34,22.16-10.22,4.01,2.77,8.03,5.28,12.05,7.5,2.55,1.52,5.06,2.94,7.55,4.28-4.44-.74-9.23-1.12-12.97-.32-13.23,2.84-23.27,17.6-23.27,17.6,0,0,14.28,7.3,26.47,2.52,10.82-4.24,17.57-10.87,20.59-14.36,7.33,3.43,14.28,6.16,20.7,8.32-4.52.06-9.3.53-12.85,1.98-12.79,5.2-20.26,21.82-20.26,21.82,0,0,15.64,4.8,27.04-2.17,10.06-6.14,15.67-13.94,18.11-18,18.31,4.86,29.59,5.57,29.59,5.57l.33-3.29.34-3.29s-8.81-.6-23.61-3.95"/></g></g><path class="cls-5" d="M285.41,145.86c.34-.74.61-1.32,1.09-2.36,9.69,3.01,19.45,4.4,28.82-1.09,7.65-4.49,13.06-11.24,18.34-18.47-1.96-.22-3.76-.4-5.55-.63-10.13-1.32-12.6-7.35-11.52-16.09.49-3.96,1.9-7.65,4.38-10.86,2.1-2.72,4.77-4.33,8.28-3.93,3.7.43,5.69,2.95,6.91,6.21,1.18,3.17,1.65,6.48,1.81,9.84.06,1.26,0,2.52,0,3.93h20.39c-2.49-17.76-4.98-35.5-7.46-53.22-1.11-.58-2.15-1.13-3.19-1.67-.08-5.38.83-10.47,3.06-15.73,1.34,2.3,1.78,4.98,4.33,6.01,2.33.94,4.64,1.95,7.04,2.96-.17,4.04-.49,8.01-1.68,11.96-1.07-.27-1.91-.48-3.04-.76.8,5.31,1.56,10.45,2.33,15.59,1.69,11.2,3.55,22.38,5.01,33.61.52,4.03.08,8.18.08,12.44h-26.86c-.77,2.99-1.34,5.9-2.64,8.59-3.56,7.41-8.2,13.85-15.73,17.74-4.96,2.56-10.22,2.38-15.51,1.53-6.42-1.04-12.41-3.49-18.7-5.61ZM333.97,112.87c-.63-3.16-1.42-5.84-3.14-8.13-1.31-1.75-3.15-2.54-5.31-1.99-1.79.46-2.98,1.69-3.18,3.61-.23,2.26.87,3.92,2.75,4.94,2.67,1.45,5.61,1.68,8.88,1.57Z"/><path class="cls-5" d="M274.89,83.27c3.65,4.11,6.37,8.53,6.95,14.02.91,8.71.33,17.44.51,26.06-.67.53-1.29.33-1.86.33-12.48.01-24.96-.02-37.44.04-2.87.01-4.99-1.07-6.65-3.37-3.48-4.84-4.83-10.46-6.11-16.12-.21-.92-.38-1.85-.61-3.02-.68.92-1.22,1.7-1.81,2.43-2.54,3.13-5.77,4.88-9.87,4.79-4.18-.09-8.35-.31-12.44-1.27-1.25-.29-2.42-.72-3.47-1.57-.55-2.33.33-4.38,1.5-6.31,3.38-5.58,8.48-9.34,13.79-12.86,2.85-1.89,5.88-3.45,9.2-5.09-1.92-5.38-.58-10.05,3.68-14.26,1.45,7.86,2.76,15.56,4.31,23.21,1.53,7.57,1.93,15.51,6.24,22.2h36.82c.51-7.56-1.91-13.85-7.66-18.81,1.69-3.56,3.28-6.9,4.94-10.38ZM213.91,98.04c6.71,2.63,11.96,1.42,14.85-2.82-.48-2.13-.49-4.42-1.37-6.56-5.32,2.04-10.37,4.17-13.48,9.38Z"/><path class="cls-5" d="M277.26,65.22c-.22.53-.31.81-.44,1.06-1.41,2.68-2.83,5.35-4.32,8.16-3.42-1.79-6.74-3.52-10.23-5.35,1.58-3.09,3.1-6.04,4.68-9.13,3.46,1.77,6.8,3.47,10.31,5.26Z"/></svg>