<?xml version="1.0" encoding="UTF-8"?>
<svg id="uuid-298105fd-5426-4b3a-a34b-2a08e5a9f464" data-name="Capa_2" xmlns="http://www.w3.org/2000/svg" viewBox="0 0 558.94 630.91">
  <defs>
    <style>
      .uuid-95c4d078-6269-4f7d-97be-490de50030a6 {
        fill: #f6f6f6;
      }

      .uuid-b056e298-8156-49ab-a3d6-6894739ef9bd {
        font-size: 37.58px;
      }

      .uuid-b056e298-8156-49ab-a3d6-6894739ef9bd, .uuid-a0b1fc3d-0ea5-4bee-950d-a9d98443c676 {
        fill: #fff;
        font-family: NicoKaku, NicoKaku;
      }

      .uuid-a0b1fc3d-0ea5-4bee-950d-a9d98443c676 {
        font-size: 57px;
      }

      .uuid-b68f6bd4-9360-4efa-9f99-ec61ba3b04ab {
        fill: #cc1333;
      }
    </style>
  </defs>
  <ellipse class="uuid-95c4d078-6269-4f7d-97be-490de50030a6" cx="279.47" cy="306.96" rx="279.47" ry="279.21"/>
  <g>
    <path class="uuid-b68f6bd4-9360-4efa-9f99-ec61ba3b04ab" d="M544.41,276.87c-14.42-132.76-127.73-236.46-264.95-236.46S28.94,144.11,14.52,276.87h81.14c13.68-87.45,90.47-154.74,182.37-154.52,91.75.22,167.64,67.15,181.42,154.52h84.97Z"/>
    <path class="uuid-b68f6bd4-9360-4efa-9f99-ec61ba3b04ab" d="M279.46,573.52c137.31,0,250.69-103.84,264.98-236.73h-84.97c-13.73,87.95-89.99,155-182.09,154.79-92.26-.21-167.79-66.87-181.63-154.79H14.48c14.29,132.89,127.67,236.73,264.98,236.73Z"/>
    <path class="uuid-b68f6bd4-9360-4efa-9f99-ec61ba3b04ab" d="M555.69,336.78h-7.22c-6.41,61.14-33.43,117.81-77.73,161.88-51.09,50.83-119.02,78.82-191.27,78.82s-140.18-27.99-191.27-78.82c-44.3-44.07-71.33-100.74-77.73-161.88H1.67c14.3,140.08,133.22,249.39,277.8,249.39s263.5-109.31,277.8-249.39h-1.57Z"/>
    <path class="uuid-b68f6bd4-9360-4efa-9f99-ec61ba3b04ab" d="M10.49,276.87c6.46-61.04,33.47-117.6,77.7-161.61,51.09-50.83,119.02-78.82,191.27-78.82s140.18,27.99,191.27,78.82c44.23,44,71.24,100.57,77.7,161.61h8.79c-14.43-139.95-133.28-249.12-277.76-249.12S16.13,136.92,1.7,276.87h8.79Z"/>
  </g>
  <text class="uuid-b056e298-8156-49ab-a3d6-6894739ef9bd" transform="translate(88.85 460.57) rotate(47.25)"><tspan x="0" y="0">R</tspan></text>
  <text class="uuid-b056e298-8156-49ab-a3d6-6894739ef9bd" transform="translate(110.28 483.48) rotate(40.15)"><tspan x="0" y="0">A</tspan></text>
  <text class="uuid-b056e298-8156-49ab-a3d6-6894739ef9bd" transform="translate(132.81 502.31) rotate(33.39)"><tspan x="0" y="0">I</tspan></text>
  <text class="uuid-b056e298-8156-49ab-a3d6-6894739ef9bd" transform="translate(156.89 518.06) rotate(26.66)"><tspan x="0" y="0">D</tspan></text>
  <text class="uuid-b056e298-8156-49ab-a3d6-6894739ef9bd" transform="translate(183.21 531.14) rotate(19.9)"><tspan x="0" y="0">E</tspan></text>
  <text class="uuid-b056e298-8156-49ab-a3d6-6894739ef9bd" transform="translate(210.62 540.97) rotate(13.05)"><tspan x="0" y="0">N</tspan></text>
  <text class="uuid-b056e298-8156-49ab-a3d6-6894739ef9bd" transform="translate(239.4 547.22) rotate(8.14)"><tspan x="0" y="0"> </tspan></text>
  <text class="uuid-b056e298-8156-49ab-a3d6-6894739ef9bd" transform="translate(252.07 549.34) rotate(3.17)"><tspan x="0" y="0">S</tspan></text>
  <text class="uuid-b056e298-8156-49ab-a3d6-6894739ef9bd" transform="translate(282.41 550.86) rotate(-3.8)"><tspan x="0" y="0">E</tspan></text>
  <text class="uuid-b056e298-8156-49ab-a3d6-6894739ef9bd" transform="translate(311.43 548.8) rotate(-10.58)"><tspan x="0" y="0">I</tspan></text>
  <text class="uuid-b056e298-8156-49ab-a3d6-6894739ef9bd" transform="translate(339.76 543.46) rotate(-17.54)"><tspan x="0" y="0">B</tspan></text>
  <text class="uuid-b056e298-8156-49ab-a3d6-6894739ef9bd" transform="translate(369.38 533.93) rotate(-24.52)"><tspan x="0" y="0">U</tspan></text>
  <text class="uuid-b056e298-8156-49ab-a3d6-6894739ef9bd" transform="translate(396.57 521.44) rotate(-31.63)"><tspan x="0" y="0">T</tspan></text>
  <text class="uuid-b056e298-8156-49ab-a3d6-6894739ef9bd" transform="translate(423.19 504.83) rotate(-38.75)"><tspan x="0" y="0">A</tspan></text>
  <text class="uuid-b056e298-8156-49ab-a3d6-6894739ef9bd" transform="translate(446.01 486.33) rotate(-45.56)"><tspan x="0" y="0">I</tspan></text>
  <text class="uuid-b056e298-8156-49ab-a3d6-6894739ef9bd" transform="translate(465.46 465.95) rotate(-50.34)"><tspan x="0" y="0"> </tspan></text>
  <text class="uuid-a0b1fc3d-0ea5-4bee-950d-a9d98443c676" transform="translate(156.72 145.29) rotate(-29.06)"><tspan x="0" y="0">晴</tspan></text>
  <text class="uuid-a0b1fc3d-0ea5-4bee-950d-a9d98443c676" transform="translate(204.42 118.44) rotate(-13.69)"><tspan x="0" y="0">天</tspan></text>
  <text class="uuid-a0b1fc3d-0ea5-4bee-950d-a9d98443c676" transform="translate(257.79 105.96) rotate(.14)"><tspan x="0" y="0">の</tspan></text>
  <text class="uuid-a0b1fc3d-0ea5-4bee-950d-a9d98443c676" transform="translate(299.97 105.05) rotate(13.94)"><tspan x="0" y="0">雷</tspan></text>
  <text class="uuid-a0b1fc3d-0ea5-4bee-950d-a9d98443c676" transform="translate(353.18 117.94) rotate(29.37)"><tspan x="0" y="0">電</tspan></text>
  <g>
    <path class="uuid-b68f6bd4-9360-4efa-9f99-ec61ba3b04ab" d="M404.63,278.52c4.42-.86,7.93-1.47,11.4-2.24,4.47-1,8.13-.09,11.37,3.44,6.32,6.88,12.99,13.45,19.39,20.26,4.63,4.92,4.69,9.02.15,13.83-6.73,7.15-13.67,14.1-20.4,21.24-2.96,3.14-6.45,3.4-10.3,2.64-3.64-.72-7.22-1.82-11.65-1.83,0,4.64.09,9.15-.03,13.65-.14,5.16-2.2,8.66-7.66,10.25-8.65,2.5-17.12,5.64-26.01,8.62-.75,6.31-1.54,12.61-2.23,18.92-.58,5.25-3.45,8.11-8.65,8.8-6.32.84-12.62,1.77-19.27,2.7-2.86,8.5-5.98,16.94-8.48,25.56-1.58,5.45-5.05,7.57-10.22,7.7-4.5.12-9.01.02-13.62.02-.2,4.27.92,7.69,1.68,11.14,1.02,4.65.18,8.41-3.51,11.78-7.02,6.4-13.68,13.2-20.6,19.71-4.41,4.14-8.7,4.11-13.15-.08-7.03-6.62-13.85-13.48-20.92-20.06-3.23-3.01-4.08-6.44-3.23-10.56.75-3.64,1.44-7.29,2.34-11.88-4.76,0-9.05.13-13.33-.03-7.02-.26-8.96-1.78-11.15-8.32-2.76-8.24-5.5-16.49-8.33-24.98-6.47-.92-12.92-1.89-19.37-2.75-5.23-.7-8.03-3.63-8.6-8.85-.67-6.18-1.43-12.34-2.18-18.82-8.75-2.94-17.34-6.12-26.11-8.67-5.26-1.53-7.38-4.87-7.57-9.83-.18-4.65-.04-9.3-.04-14.07-4.47.06-8.07,1.08-11.7,1.87-4.3.94-7.84.02-10.96-3.35-6.45-6.98-13.22-13.66-19.72-20.59-4.41-4.7-4.43-8.88-.1-13.47,6.73-7.14,13.67-14.09,20.39-21.24,2.93-3.11,6.34-3.62,10.24-2.83,3.64.74,7.3,1.42,11.81,2.3,0-4.79-.15-9.1.03-13.39.3-7.06,1.79-8.92,8.37-11.11,8.26-2.76,16.52-5.5,25.35-8.43.54-4.9,1.17-9.95,1.64-15.01.93-10.06,3.08-12.28,13.13-13.4,3.71-.41,7.42-.88,11.12-1.38,1.38-.18,2.73-.52,4.29-.82,2.87-8.53,6-16.97,8.51-25.61,1.47-5.06,4.63-7.22,9.41-7.45,4.66-.22,9.33-.05,14.27-.05.37-4.15-.74-7.53-1.53-10.9-1.14-4.83-.25-8.71,3.58-12.19,7.02-6.4,13.68-13.19,20.61-19.7,4.19-3.94,8.55-3.96,12.78,0,7.27,6.82,14.32,13.88,21.59,20.71,3.13,2.94,3.53,6.39,2.77,10.26-.72,3.65-1.44,7.29-2.32,11.76,5.02,0,9.5-.16,13.97.04,6.43.29,8.37,1.9,10.41,7.99,2.77,8.26,5.52,16.53,8.46,25.3,5.15.68,10.51,1.42,15.88,2.08,9.49,1.15,11.64,3.34,12.59,12.92.46,4.65.97,9.29,1.48,13.93.05.45.3.88.57,1.6,8.38,2.81,16.92,5.67,25.45,8.54,6.02,2.02,7.6,3.98,7.89,10.49.19,4.35.04,8.71.04,13.84ZM402.51,332.9c5.61,1.12,9.87,1.92,14.11,2.84,3.64.79,6.59.05,9.26-2.81,6.25-6.74,12.79-13.2,19.1-19.9,4.31-4.58,4.34-7.53.12-12.01-6.3-6.69-12.84-13.16-19.08-19.91-2.78-3.01-5.86-3.74-9.67-2.89-4.23.94-8.49,1.71-13.86,2.78,0-6.08.06-11.65-.02-17.21-.06-4.02-1.9-6.44-6.04-7.69-9.21-2.78-18.27-6.05-27.41-9.12-.82-6.95-1.68-13.58-2.37-20.23-.44-4.23-2.71-6.4-6.83-6.95-6.78-.9-13.55-1.86-20.55-2.83-2.82-8.45-5.64-16.85-8.43-25.25-2.31-6.94-3.1-7.64-10.59-7.92-4.77-.18-9.55-.03-14.8-.03,1.07-5.39,1.91-9.8,2.83-14.19.73-3.47.03-6.33-2.68-8.87-6.83-6.38-13.45-12.99-20.25-19.4-4.36-4.11-7.38-4.16-11.65-.14-6.7,6.3-13.16,12.84-19.93,19.06-3.15,2.9-3.93,6.07-3,10.07.97,4.18,1.66,8.43,2.67,13.62-6.05,0-11.48-.04-16.91.01-4.24.04-6.73,1.95-8.03,6.27-2.71,9.05-5.93,17.95-8.9,26.78-7.23,1.01-14,1.99-20.78,2.9-3.95.53-6.09,2.68-6.53,6.67-.75,6.78-1.6,13.56-2.43,20.48-8.76,2.92-17.31,5.77-25.86,8.63-6.75,2.25-7.42,3.01-7.72,10.28-.2,4.87-.04,9.76-.04,15.05-5.6-1.1-10.02-1.94-14.42-2.84-3.29-.68-6.04-.06-8.47,2.52-6.51,6.92-13.22,13.65-19.74,20.57-4.02,4.26-3.96,7.28.16,11.65,6.42,6.8,13.02,13.42,19.4,20.25,2.54,2.71,5.41,3.39,8.87,2.67,4.39-.92,8.8-1.76,14.32-2.86,0,6.06-.09,11.62.03,17.18.09,3.96,1.82,6.47,6.01,7.72,9.21,2.76,18.27,6.04,27.47,9.13.81,6.91,1.65,13.54,2.35,20.18.44,4.2,2.64,6.43,6.79,6.98,6.78.89,13.55,1.87,20.6,2.85,2.85,8.54,6,17.01,8.43,25.67,1.54,5.49,4.74,7.61,10.08,7.53,4.94-.07,9.89-.02,15.31-.02-1.04,5.22-1.86,9.47-2.74,13.71-.7,3.37-.54,6.4,2.22,9.01,7.02,6.63,13.88,13.44,20.9,20.07,3.92,3.69,7.19,3.76,10.99.18,7.15-6.73,14.12-13.64,21.24-20.4,2.61-2.48,2.78-5.38,2.13-8.59-.88-4.37-1.73-8.74-2.79-14.11,6.06,0,11.49.04,16.92-.01,4.22-.04,6.74-1.91,8.03-6.25,2.7-9.05,5.94-17.95,8.92-26.79,7.22-1.01,14-1.97,20.77-2.9,3.92-.54,6.11-2.68,6.55-6.69.74-6.78,1.59-13.56,2.4-20.43,9.23-3.1,18.15-6.34,27.23-9.04,4.34-1.29,6.2-3.82,6.24-8.04.06-5.43.01-10.86.01-16.95Z"/>
    <path class="uuid-b68f6bd4-9360-4efa-9f99-ec61ba3b04ab" d="M302.86,445.56c-8.19,9.17-15.34,17.18-23.12,25.89-7.84-8.92-15-17.07-23.5-26.74,5.29-27.23,11.17-57.43,17.1-87.95h12.24c5.89,30.28,11.79,60.6,17.28,88.8Z"/>
    <path class="uuid-b68f6bd4-9360-4efa-9f99-ec61ba3b04ab" d="M329.03,313.04v-12.14c30.33-5.91,60.65-11.81,89.51-17.43,8.79,7.92,16.77,15.1,25.56,23.02-9.09,7.77-17.34,14.82-27.57,23.57-26.48-5.15-56.81-11.05-87.5-17.01Z"/>
    <path class="uuid-b68f6bd4-9360-4efa-9f99-ec61ba3b04ab" d="M256.07,168.35c8.17-9.18,15.3-17.2,23.04-25.9,7.78,8.87,14.84,16.93,23.55,26.87-5.22,26.9-11.11,57.22-17.06,87.85h-12.25c-5.89-30.29-11.79-60.61-17.28-88.81Z"/>
    <path class="uuid-b68f6bd4-9360-4efa-9f99-ec61ba3b04ab" d="M114.66,307.07c9.05-8.03,17.08-15.15,26.45-23.45,27.85,5.42,58.18,11.31,88.67,17.24v12.19c-30.27,5.89-60.58,11.79-89.28,17.38-8.88-8.03-16.84-15.23-25.84-23.36Z"/>
    <path class="uuid-b68f6bd4-9360-4efa-9f99-ec61ba3b04ab" d="M191.54,361.67c-10.09-3.38-19.76-6.62-29.71-9.95v-19.77c22.8-4.45,45.77-8.92,69.01-13.46,1.67,4.25,3.29,8.36,5.1,12.95-14.68,9.99-29.4,20.01-44.4,30.22Z"/>
    <path class="uuid-b68f6bd4-9360-4efa-9f99-ec61ba3b04ab" d="M234.67,189.4h19.82c4.43,22.75,8.93,45.83,13.44,68.95-4.31,1.69-8.33,3.26-12.95,5.07-9.95-14.65-20.04-29.49-30.18-44.42,3.3-9.89,6.53-19.56,9.88-29.59Z"/>
    <path class="uuid-b68f6bd4-9360-4efa-9f99-ec61ba3b04ab" d="M303.84,263.64c-4.32-2.23-8.38-3.69-12.88-5.04,4.54-23.3,9.04-46.39,13.49-69.26h19.79c3.33,9.97,6.57,19.64,9.91,29.63-10.01,14.76-20.01,29.51-30.3,44.67Z"/>
    <path class="uuid-b68f6bd4-9360-4efa-9f99-ec61ba3b04ab" d="M161.81,281.98v-19.75c9.87-3.32,19.53-6.57,29.69-9.98,14.71,10,29.56,20.09,44.66,30.35-2.1,4.17-3.74,8.15-4.97,12.86-23.25-4.52-46.33-9-69.38-13.49Z"/>
    <path class="uuid-b68f6bd4-9360-4efa-9f99-ec61ba3b04ab" d="M397.07,262.14v19.84c-22.81,4.44-45.82,8.92-68.94,13.42-1.71-4.29-3.3-8.3-5.14-12.92,14.58-9.93,29.32-19.97,44.36-30.2,9.65,3.2,19.35,6.42,29.73,9.86Z"/>
    <path class="uuid-b68f6bd4-9360-4efa-9f99-ec61ba3b04ab" d="M322.83,331.35c2.09-4.35,3.69-8.21,4.96-12.88,23.19,4.5,46.25,8.98,69.34,13.46v19.76c-9.95,3.34-19.74,6.62-29.73,9.97-14.82-10.07-29.55-20.09-44.58-30.31Z"/>
    <path class="uuid-b68f6bd4-9360-4efa-9f99-ec61ba3b04ab" d="M254.95,350.5c4.48,1.76,8.49,3.33,12.96,5.08-4.48,23.04-8.97,46.12-13.42,68.99h-19.8c-3.33-9.95-6.56-19.62-9.91-29.62,10.06-14.82,20.13-29.66,30.17-44.45Z"/>
    <path class="uuid-b68f6bd4-9360-4efa-9f99-ec61ba3b04ab" d="M303.98,350.49c10.1,14.88,20.05,29.54,30.15,44.41-3.24,9.73-6.46,19.42-9.83,29.54h-19.87c-4.41-22.64-8.92-45.75-13.42-68.86,4.4-1.73,8.42-3.31,12.97-5.09Z"/>
    <path class="uuid-b68f6bd4-9360-4efa-9f99-ec61ba3b04ab" d="M338.87,222.56c7.43.98,14.5,1.91,22.09,2.91.81,7.15,1.62,14.19,2.46,21.59-14.42,9.73-28.83,19.45-43.16,29.11-3.3-3.43-6.48-6.74-9.97-10.37,9.19-13.91,18.78-28.41,28.59-43.24Z"/>
    <path class="uuid-b68f6bd4-9360-4efa-9f99-ec61ba3b04ab" d="M363.38,366.8c-.8,7.29-1.56,14.22-2.36,21.61-7.49.99-14.83,1.97-22.15,2.93-9.79-14.81-19.37-29.31-28.92-43.75,3.32-3.39,6.45-6.58,9.9-10.1,14.38,9.68,28.79,19.38,43.53,29.3Z"/>
    <path class="uuid-b68f6bd4-9360-4efa-9f99-ec61ba3b04ab" d="M197.91,225.48c7.66-1.01,14.73-1.95,22.13-2.93,9.68,14.64,19.34,29.22,28.99,43.82-3.39,3.38-6.54,6.53-10.02,10-14.34-9.66-28.74-19.35-43.44-29.25.76-7.08,1.52-14.13,2.33-21.64Z"/>
    <path class="uuid-b68f6bd4-9360-4efa-9f99-ec61ba3b04ab" d="M248.55,348.26c-9.15,13.84-18.74,28.34-28.48,43.07-7.27-.95-14.48-1.89-22.1-2.89-.82-7.27-1.62-14.32-2.45-21.62,14.48-9.75,28.9-19.46,43.62-29.38,3.02,3.47,5.95,6.84,9.4,10.82Z"/>
    <path class="uuid-b68f6bd4-9360-4efa-9f99-ec61ba3b04ab" d="M281.31,326.46c-.47,1.95-.43,3.15.69,4.59h23.35c2.09-2.05,1.51-4.95,2.36-7.4,1.5-.1,2.69.52,3.76,1.25-.23,9.21-1.91,10.92-10.6,10.92-4.99,0-9.97.03-14.96,0-7.98-.06-8.97-.94-10.16-9.07h-15.46c-1.12.56.11,2.28-1.18,3.28h-3.44c-.99-1.13-1.14-18.96-.14-24.6h47.44v21.03h-21.67ZM297.89,309.28h-16.78c-.35,1.7-.67,3.05.29,4.43h16.65c.4-1.73.57-3.07-.16-4.43ZM297.96,317.58h-16.79c-.26,1.81-.85,3.41.41,4.95h16.21c.84-1.65.66-3.14.17-4.95ZM260.12,313.69h15.81c.42-1.75.66-3.1-.28-4.5h-15.5c-.49,1.62-.49,2.98-.03,4.5ZM259.92,322.39h15.92c.47-1.84.75-3.33-.25-4.7h-15.67v4.7Z"/>
    <path class="uuid-b68f6bd4-9360-4efa-9f99-ec61ba3b04ab" d="M303.99,278.13h-21.83c-1.5,1.18-.86,2.63-.88,4.39h27.6c.62,4.84.37,9.27.22,13.64-1.58.66-2.88.72-4.47.04v-9.5h-23.29v15.2c-1.54,1.71-2.93.93-4.63,1.15v-16.33h-22.84c-1.15,2.89.08,6.21-.65,9.4-1.26.88-2.54.55-3.99.17v-13.63h26.74c.75-1.63.65-2.81.15-4.33h-21.71c-1.9-1.25-.96-2.52-1.32-3.88h51.28c.71,1.23.87,2.43-.37,3.67Z"/>
    <path class="uuid-b68f6bd4-9360-4efa-9f99-ec61ba3b04ab" d="M302.4,297.86c.4,1.1.42,1.98-.22,3.09h-16.5c-1.06-.65-.41-1.82-.69-3.09h17.41Z"/>
    <path class="uuid-b68f6bd4-9360-4efa-9f99-ec61ba3b04ab" d="M272.59,297.87v3.08h-16.01c-1-.62-.61-1.74-.51-3.08h16.52Z"/>
    <path class="uuid-b68f6bd4-9360-4efa-9f99-ec61ba3b04ab" d="M300.37,290.45c.66,1.08.62,1.95.05,3.08h-14.7c-1.1-.76-.53-1.83-.47-3.08h15.13Z"/>
    <path class="uuid-b68f6bd4-9360-4efa-9f99-ec61ba3b04ab" d="M262.58,293.6h-4.45c-1.2-.65-.93-1.57-.75-2.47.21-.21.43-.43.64-.64l1.75-.1c.35.58.69.57,1.03,0,.59,0,1.18,0,1.77,0,.35.59.69.57,1.03,0h8.24c1.14.88,1.05,1.84.29,3.22h-8.53c-.34-.49-.69-.49-1.03,0Z"/>
    <path class="uuid-b68f6bd4-9360-4efa-9f99-ec61ba3b04ab" d="M258.02,290.49c-.21.21-.43.43-.64.64-.17-.6.07-.79.64-.64Z"/>
    <path class="uuid-b68f6bd4-9360-4efa-9f99-ec61ba3b04ab" d="M260.81,290.38c-.34.57-.69.59-1.03,0,.34,0,.69,0,1.03,0Z"/>
    <path class="uuid-b68f6bd4-9360-4efa-9f99-ec61ba3b04ab" d="M263.62,290.38c-.34.58-.69.59-1.03,0,.34,0,.69,0,1.03,0Z"/>
    <path class="uuid-b68f6bd4-9360-4efa-9f99-ec61ba3b04ab" d="M262.58,293.6c.35-.49.69-.48,1.03,0-.34,0-.69,0-1.03,0Z"/>
  </g>
</svg>