<svg enable-background="new 0 0 113.4 113.4" viewBox="0 0 113.4 113.4" xmlns="http://www.w3.org/2000/svg"><path d="m0 56.7c-.3-30.7 25.3-58 59.3-56.7 28.4 1.1 55.4 24.9 54 59.5-1.1 28.2-24.9 55.2-59.4 53.8-28.8-1.1-54-25-53.9-56.6zm1.2-.2c0 30.6 24.9 55.6 55.4 55.7 30.7.1 55.8-24.8 55.8-55.4 0-30.8-24.8-55.8-55.4-55.8-30.8-.1-55.8 24.8-55.8 55.5z" fill="#6b6466"/><path d="m1.2 56.5c0-30.7 25-55.6 55.8-55.6 30.6 0 55.4 25 55.4 55.8 0 30.6-25.1 55.5-55.8 55.4-30.5 0-55.4-25-55.4-55.6zm99.7-16.2c-.1-.2-.1-.5-.2-.7-8.1-18.5-22.1-28.8-42.4-30-.5-.9-1-1.8-1.5-2.9-.6 1.1-1.1 2-1.5 2.9-5.1.2-10.1 1-14.9 3-13.3 5.3-22.5 14.4-27.6 27.7-1 .5-2.1.5-3.1.8.7.9 1.3 1.7 2 2.5-1.1 2.8-1.4 5.7-1.6 8.6-1.3 16.9 4.8 30.5 17.7 41.3 0 .9.1 1.9-.3 2.9 1.2 0 2-.7 2.9-.9 4.4 3 9.2 5.4 14.4 6.7 13.8 3.4 26.7 1.3 38.5-6.6.9.3 1.7.6 2.7 1-.5-1-.4-1.9-.3-2.7 10.8-8.7 17.1-19.8 18.1-33.7.4-5.6.1-11.2-1.7-16.6.6-.8 1.2-1.5 1.8-2.4-1.2-.3-2.1-.5-3-.9z" fill="#fdfdfd"/><g fill="#682b68"><path d="m83.2 95.4c-11.9 7.9-24.8 10-38.5 6.6-5.2-1.3-9.9-3.7-14.4-6.7.5-.3.9-.6 1.4-.8l20.4-9.6c1.5-.7 3-1.4 4.6-2.1.4.2.8.3 1.1.5 4.3 2 8.7 4 13 6.1 4.2 2.1 8.4 3.8 12.4 6z"/><path d="m27.7 93.4c-12.9-10.7-19-24.4-17.7-41.3.2-2.9.5-5.8 1.6-8.6.4.3.8.6 1.1 1 2.6 2.7 5.1 5.5 7.7 8.3 3.7 3.9 7.4 7.8 11 11.6 0 .5-.1 1-.1 1.5-2.7-.6-5.4-.8-7.7 1.3-2.7 2.4-3.7 5.9-.7 8.7 1.1 1.1 2.5 1.9 4.1 2 .1 1.9 1.1 3.2 2.2 4.5-.2 1.9-.3 3.9-.7 5.8-.3 1.8-.1 3.6-.8 5.2z"/><path d="m102 43.3c1.8 5.4 2.1 11 1.7 16.6-1 13.9-7.3 25-18.1 33.7-.8-3.6-1-7.3-1.5-11 3.3-1.4 4.4-4 4.2-7.4 2.3-.8 3.5-2.6 4.5-4.7 0-1.3 0-2.6 0-3.8-.9-1.7-2.1-2.5-3.8-2.8-2.5-.4-4.7.2-6.8 1.4-.1-.4-.4-.7-.2-1.1 2.3-2.4 4.7-4.7 6.8-7.2 1.6-1.9 3.4-3.6 5.1-5.4 2.7-2.7 5.1-5.7 8.1-8.3z"/><path d="m12.8 40.3c5.1-13.3 14.3-22.4 27.4-27.7 4.8-2 9.8-2.8 14.9-3-4.4 8-8.9 16-13.3 24-.6 1.2-1.4 1.6-2.7 1.7-.8-.2-1.4-.6-1.9-1.3.5-1.8.4-4.1-.2-6.6-1.2-1-2-2.5-3.5-3.2-1.7-.8-3.4-1-4.8-.4-2.9 1.3-3.9 3.9-3.6 7.1-1.3.3-2 1.4-3 2-1.5 1.7-1.7 3.7-1.6 5.8-2.5.8-5.1 1.3-7.7 1.6z"/><path d="m58.2 9.6c20.4 1.2 34.3 11.5 42.4 30 .1.2.1.5.2.7-.5-.1-1.1-.1-1.6-.2-2.9-.5-5.9-1.1-8.8-1.6.2-.3.3-.7.5-.9 1.7-1.7 1.7-5.3-.4-7.1-1.3-1.1-2.7-2-4.3-2.2-.4-2.8-1.9-4.6-4.3-5.8-2.5-1.2-5.3.1-6.5 2.6-1 2.2-.7 4.5-.2 6.7-1 .9-2.1 1.8-3.2 2.8-2.4-4.3-4.7-8.6-7.1-13-2.2-3.9-4.4-8-6.7-12z"/></g><path d="m84.1 82.7c.5 3.6.7 7.3 1.5 11 0 .9-.1 1.7.3 2.7-1-.4-1.9-.7-2.7-1-4-2.3-8.3-4-12.4-6-4.3-2.1-8.7-4.1-13-6.1-.4-.2-.7-.3-1.1-.5-1.5.7-3.1 1.4-4.6 2.1-6.8 3.2-13.6 6.4-20.4 9.6-.5.2-.9.5-1.4.8-1 .2-1.8.9-2.9.9.4-1 .3-1.9.3-2.9.7-1.7.5-3.4.8-5.2.4-1.9.5-3.9.7-5.8.4.3.8.6 1.2.8-.5 3.7-.9 7.4-1.4 11.2l9.9-4.5 16.5-7.8c.9-.4 1.7-.4 2.6 0 1.4.7 2.9 1.3 4.3 2 5.8 2.7 11.5 5.5 17.3 8.2 1.6.7 3.2 1.4 4.8 2.2-.5-4-1-7.8-1.4-11.7z" fill="#6b6466"/><path d="m58.2 9.6c2.3 4 4.5 8.1 6.8 12.1 2.4 4.3 4.7 8.6 7.1 13-.2.3-.6.5-1.1.5-4.7-8.5-9.4-17-14.2-25.6-.3.3-.4.4-.4.5-4.1 7.4-8.2 14.7-12.3 22.1-.9 1.6-1.5 3.5-3.6 4.1-.6-.2-1-.5-1.3-1 1.2 0 2-.5 2.7-1.7 4.4-8 8.8-16 13.3-24 .5-.9 1-1.8 1.5-2.9.6 1.1 1 2 1.5 2.9z" fill="#6b6466"/><path d="m90.5 38.5c2.9.6 5.9 1.1 8.8 1.6.5.1 1.1.1 1.6.2.9.4 1.8.6 2.9.6-.7.9-1.2 1.6-1.8 2.4-3 2.5-5.4 5.6-8.1 8.5-1.7 1.8-3.5 3.5-5.1 5.4-2.2 2.5-4.5 4.8-6.8 7.2-.2.4.1.7.2 1.1-.8 0-1.2-.7-1.8-1.2 7-7.5 13.9-14.9 21-22.4-4.1-.8-8-1.6-12.2-2.4.6-.5.9-.7 1.3-1z" fill="#6b6466"/><path d="m12.8 40.3c2.6-.3 5.2-.7 7.7-1.5 0 .5.4.9.1 1.4-2.8.5-5.7 1.1-8.7 1.7 1.6 1.9 3.3 3.5 4.9 5.2 4.8 5.3 9.7 10.4 14.6 15.5 1.1 1.1 1.8 2.1.9 3.6-.3 0-.7.1-1-.3 0-.5.1-1 .1-1.5-3.7-3.9-7.3-7.7-11-11.6-2.6-2.7-5.1-5.5-7.7-8.3-.3-.4-.7-.7-1.1-1-.6-.8-1.3-1.7-2-2.5 1.1-.3 2.2-.2 3.2-.7z" fill="#6b6466"/><path d="m31.3 66c .3.3.7.3 1 .3.9-1.5.2-2.5-.9-3.6-4.9-5.1-9.9-10.3-14.6-15.5-1.6-1.7-3.3-3.3-4.9-5.2 3-.6 5.8-1.1 8.8-1.7.3-.5-.2-.9-.1-1.4-.2-2.1.1-4.1 1.6-5.8 1-.7 1.7-1.7 3-2-.3-3.2.7-5.9 3.6-7.1 1.4-.6 3.2-.5 4.8.4 1.6.8 2.3 2.2 3.5 3.2.6 2.5.7 4.8.2 6.6.4.7 1.1 1.1 1.9 1.3.3.5.7.8 1.3 1 2-.6 2.7-2.4 3.6-4.1 4.1-7.4 8.2-14.7 12.3-22.1.1-.1.2-.2.4-.5 4.8 8.6 9.5 17.1 14.2 25.6.6 0 .9-.2 1.1-.5 1.1-.9 2.2-1.9 3.2-2.8-.5-2.3-.8-4.5.2-6.7 1.2-2.6 4-3.8 6.5-2.6 2.4 1.1 4 3 4.3 5.8 1.7.3 3 1.1 4.3 2.2 2.1 1.8 2.1 5.4.4 7.1-.2.2-.4.6-.5.9-.3.3-.7.5-1.3 1 4.2.8 8.2 1.6 12.2 2.4-7.1 7.5-14 14.9-21 22.4.6.5 1 1.2 1.8 1.2 2.1-1.1 4.3-1.7 6.8-1.4 1.7.3 2.9 1.1 3.8 2.8v3.8c-1 2-2.2 3.9-4.5 4.7.2 3.4-.9 6-4.2 7.4-.3 0-.7 0-1.2 0 .5 3.9.9 7.7 1.4 11.7-1.7-.7-3.3-1.4-4.8-2.2-5.8-2.7-11.5-5.5-17.3-8.2-1.4-.7-2.9-1.3-4.3-2-.9-.4-1.7-.4-2.6 0-5.5 2.6-11 5.2-16.5 7.8-3.2 1.5-6.5 3-9.9 4.5.5-3.8.9-7.4 1.4-11.2-.4-.3-.8-.5-1.2-.8-1-1.3-2.1-2.6-2.2-4.5-1.6-.1-3-.9-4.1-2-3.1-2.9-2-6.4.7-8.7 2.4-2.3 5.1-2.2 7.8-1.5zm54-34c-.2 0-.5 0-.7 0 1-3.6.1-6.2-2.3-7.8-2.5-1.7-5.2-.7-6 2.3-.5 2.1 0 4 .3 6-1.4 1.2-2.8 2.4-4.3 3.7 1.7 1.3 3.2 2.6 4.6 4.1 1-.9 2-1.6 2.9-2.5.4.3.9.5 1.3.8 3.1 1.7 5.8 1.5 8-.6 1.2-1.2 2.4-2.6 1.7-4.6s-2.5-3.3-4.7-3.4c-.4.5-.2 1.4-.8 2zm-56.7 42 .2.2c-1.1 3.9-.1 6.4 2.4 8 2.4 1.6 5.1.5 5.9-2.3.5-2.1 0-4-.3-6 2.5-2.1 4.9-4.2 7.4-6.3-2.3-.8-4.5-1.3-6.5-2.5-1.4 1.2-2.8 2.4-4.3 3.6-.8-.7-1.7-1-2.5-1.4-2.9-1.1-5.8-.3-7.5 2.2-.9 1.3-1.5 2.7-.6 4.3 1 1.7 2.4 2.7 4.5 2.9.3-1.1.1-2.3 1.3-2.7zm36.4-7.1c6.3-1.1 9.1-2 11.8-4 2.6-1.9 4.2-4.4 4.1-7.8 0-1.7-.2-3.3-.5-5-1.5-7.3-5.7-12.3-12.7-14.8s-14.1-2.5-21.2-.3c-6.4 2.1-10.9 6.3-12.8 13-.4 1.2-.8 2.5-.9 3.7-.2 2.1-.5 4.1.2 6.2 1 3.2 3.4 5.2 6.3 6.6s6 2 9.3 2.5c-1.1 2.9-2.2 5.8-3.2 8.5 5 6.8 18 6.8 22.9 0-1.2-2.8-2.2-5.6-3.3-8.6zm12.6 4.6c-.2.9-.4 1.8-.5 2.6-.5 3.4 1.2 6.1 4.4 7.1 1.5.5 3 .3 4.1-.9 1.3-1.4 1.8-3 1.4-4.9-1.2 0-2.3.4-3.1-.9 3.2.1 6-.7 7.4-3.9 1.3-3.1-.5-5.7-4-5.5-1.9.1-3.6 1-5.3 1.8-1.5-1-3-2.1-4.6-3.1-1.8 1.5-3.9 2.2-6.3 3.1 2.3 1.8 4.4 3.2 6.5 4.6zm-48-39.8c-3.9-.1-6.3 1.1-7.5 3.9-1.3 3.1.6 5.7 3.9 5.5 1.9-.1 3.6-1 5.4-1.8 1.2.8 2.4 1.6 3.7 2.5 1.2-1.8 2.8-3 4.3-4.5-1.3-.9-2.5-1.7-3.7-2.6.8-2.5 1.2-4.9-.4-7.2-1.5-2.1-4.4-3.2-6.4-2.3-1.9.9-3.1 3.4-2.5 5.7 1.1-.1 2.3-.5 3.2.8z" fill="#fcfcfc"/><g fill="#221b1b"><path d="m65 66.9c1.1 2.9 2.2 5.7 3.2 8.5-4.9 6.8-17.9 6.8-22.9 0 1-2.7 2.1-5.6 3.2-8.5-3.3-.4-6.4-1.1-9.3-2.5s-5.3-3.3-6.3-6.6c-.7-2-.4-4.1-.2-6.2.1-1.3.5-2.5.9-3.7 1.9-6.6 6.4-10.9 12.8-13 7-2.3 14.2-2.2 21.2.3s11.2 7.5 12.7 14.8c.3 1.7.5 3.3.5 5 .1 3.4-1.5 5.9-4.1 7.8-2.7 2.1-5.5 3-11.7 4.1zm-11.8-12.5c0-.8 0-1.6-.1-2.4-.5-3.4-1.8-6.3-5.2-7.7-2.8-1.1-5.4-.4-8 .8-3.1 1.5-3.8 3.5-2.4 6.7 1.3 2.9 3.3 5.2 5.7 7.1 1.4 1.1 3 1.7 4.8 1.9 2.9.4 4.7-1.1 5.1-3.9.1-.8.1-1.7.1-2.5zm7-.2c0 1.4.1 2.9.4 4.3.1.6.4 1.1 1 1.4 1.3.6 2.7 1 4.2.8 4.3-.7 9.9-6.2 10.7-10.5.4-2.3-.2-3.7-2.3-4.8-1-.6-2.1-1-3.3-1.4-4.1-1.1-7.7.5-9.5 4.3-1 1.9-1.3 3.9-1.2 5.9zm-1.6 9c-.3-1.4-.6-2.7-2.1-3.4-1.1 1-1.7 2.1-1.7 3.5 1.3.9 2.5.9 3.8-.1z"/><path d="m28.6 74c-1.2.4-1 1.6-1.3 2.6-2.1-.1-3.5-1.2-4.5-2.9-.9-1.6-.4-3 .6-4.3 1.7-2.5 4.7-3.3 7.5-2.2.9.3 1.7.7 2.5 1.4 1.4-1.2 2.9-2.4 4.3-3.6 2 1.2 4.2 1.7 6.5 2.5-2.5 2.1-4.9 4.2-7.4 6.3.3 2 .8 4 .3 6-.7 2.9-3.4 4-5.9 2.3-2.4-1.6-3.4-4.1-2.4-8 .1-.1.3-.2.2-.4-.2 0-.4 0-.4.3z"/><path d="m77.6 71.5c-2.1-1.5-4.2-2.9-6.6-4.6 2.4-.9 4.6-1.6 6.3-3.1 1.6 1.1 3.1 2.1 4.6 3.1 1.7-.8 3.4-1.7 5.3-1.8 3.4-.2 5.3 2.4 4 5.5-1.4 3.2-4.1 4-7.4 3.9.7 1.2 1.9.8 3.1.9.4 1.9-.2 3.5-1.4 4.9-1.1 1.2-2.6 1.4-4.1.9-3.2-1-4.9-3.7-4.4-7.1.2-.8.4-1.6.6-2.6z"/><path d="m85.3 32c .6-.6.4-1.5.8-2.2 2.2.1 4 1.4 4.7 3.4s-.4 3.4-1.7 4.6c-2.2 2.1-4.8 2.3-8 .6-.4-.2-.8-.5-1.3-.8-1 .8-1.9 1.6-2.9 2.5-1.4-1.5-3-2.8-4.6-4.1 1.5-1.3 2.9-2.5 4.3-3.7-.3-2-.8-4-.3-6 .8-2.9 3.5-4 6-2.3 2.4 1.7 3.2 4.2 2.3 7.8-.2.1-.4.3-.3.6.4.2.8 0 1-.4z"/><path d="m29.6 31.7c-.9-1.2-2-.9-3-.9-.6-2.4.5-4.9 2.5-5.7 2-.9 4.9.2 6.4 2.3 1.6 2.3 1.1 4.7.4 7.2 1.2.8 2.4 1.7 3.7 2.6-1.5 1.5-3.1 2.7-4.3 4.5-1.3-.8-2.5-1.7-3.7-2.5-1.8.8-3.4 1.7-5.4 1.8-3.3.2-5.2-2.4-3.9-5.5 1-2.7 3.3-4 7.3-3.8z"/></g><path d="m85.3 32c-.2.4-.5.6-1 .6 0-.3.1-.5.3-.6z" fill="#bdafaa"/><path d="m53.2 54.4c0 .8-.1 1.7-.2 2.5-.3 2.8-2.2 4.3-5.1 3.9-1.8-.2-3.4-.8-4.8-1.9-2.5-1.9-4.4-4.3-5.7-7.1-1.4-3.2-.7-5.1 2.4-6.7 2.6-1.3 5.2-2 8-.8 3.4 1.4 4.7 4.3 5.2 7.7.2.8.2 1.6.2 2.4z" fill="#fcfcfc"/><path d="m60.2 54.2c0-2.1.2-4 1.1-5.9 1.8-3.8 5.4-5.4 9.5-4.3 1.2.3 2.2.8 3.3 1.4 2.1 1.1 2.7 2.5 2.3 4.8-.8 4.3-6.4 9.8-10.7 10.5-1.5.2-2.8-.2-4.2-.8-.6-.3-.9-.8-1-1.4-.2-1.4-.4-2.8-.3-4.3z" fill="#fcfcfc"/><path d="m58.6 63.2c-1.3 1-2.5 1-3.8.1 0-1.4.6-2.5 1.7-3.5 1.5.7 1.8 2 2.1 3.4z" fill="#fcfcfc"/><path d="m28.6 74c0-.3.2-.3.4-.2.1.2-.1.3-.2.4-.1-.1-.1-.1-.2-.2z" fill="#fcfcfc"/></svg>