<?xml version="1.0" encoding="UTF-8"?><svg id="Capa_1" xmlns="http://www.w3.org/2000/svg" viewBox="0 0 566.93 566.93"><defs><style>.cls-1{font-size:35px;}.cls-1,.cls-2,.cls-3{fill:#fff;}.cls-1,.cls-3{font-family:Tahoma-Bold, Tahoma;font-weight:700;}.cls-2,.cls-4,.cls-5{stroke-width:0px;}.cls-3{font-size:38px;}.cls-4{fill:#35495e;}.cls-5{fill:#f1c410;}</style></defs><circle class="cls-5" cx="283.46" cy="283.46" r="279.21" transform="translate(-117.41 283.46) rotate(-45)"/><path class="cls-4" d="m283.46,13.58C136.79,13.58,17.89,134.41,17.89,283.46s118.9,269.89,265.57,269.89,265.57-120.83,265.57-269.89S430.14,13.58,283.46,13.58Z"/><circle class="cls-4" cx="283.46" cy="283.46" r="212.66"/><text class="cls-1" transform="translate(27.49 313.06) rotate(81.12)"><tspan x="0" y="0">S</tspan></text><text class="cls-1" transform="translate(30.9 336.81) rotate(74.48)"><tspan x="0" y="0">W</tspan></text><text class="cls-1" transform="translate(41.43 373.22) rotate(67.22)"><tspan x="0" y="0">O</tspan></text><text class="cls-1" transform="translate(52.61 399.51) rotate(61.15)"><tspan x="0" y="0">R</tspan></text><text class="cls-1" transform="translate(65.7 423.15) rotate(55.13)"><tspan x="0" y="0">D</tspan></text><text class="cls-1" transform="translate(81.88 446.42) rotate(48.44)"><tspan x="0" y="0">M</tspan></text><text class="cls-1" transform="translate(103.97 470.89) rotate(42.03)"><tspan x="0" y="0">A</tspan></text><text class="cls-1" transform="translate(122.89 487.8) rotate(36.66)"><tspan x="0" y="0">S</tspan></text><text class="cls-1" transform="translate(141.83 501.8) rotate(31.54)"><tspan x="0" y="0">T</tspan></text><text class="cls-1" transform="translate(161.28 513.67) rotate(26.47)"><tspan x="0" y="0">E</tspan></text><text class="cls-1" transform="translate(181.88 523.96) rotate(20.88)"><tspan x="0" y="0">R</tspan></text><text class="cls-1" transform="translate(206.79 533.11) rotate(16.6)"><tspan x="0" y="0"> </tspan></text><text class="cls-1" transform="translate(217.72 536.67) rotate(12.07)"><tspan x="0" y="0">&amp;</tspan></text><text class="cls-1" transform="translate(245.71 542.26) rotate(7.52)"><tspan x="0" y="0"> </tspan></text><text class="cls-1" transform="translate(256.88 543.9) rotate(3.61)"><tspan x="0" y="0">S</tspan></text><text class="cls-1" transform="translate(280.46 545.34) rotate(-1.8)"><tspan x="0" y="0">P</tspan></text><text class="cls-1" transform="translate(304.79 544.48) rotate(-7.05)"><tspan x="0" y="0">E</tspan></text><text class="cls-1" transform="translate(327.58 541.64) rotate(-12.41)"><tspan x="0" y="0">C</tspan></text><text class="cls-1" transform="translate(351.64 536.15) rotate(-17.26)"><tspan x="0" y="0">I</tspan></text><text class="cls-1" transform="translate(369.08 530.83) rotate(-22.2)"><tspan x="0" y="0">A</tspan></text><text class="cls-1" transform="translate(392.52 521.09) rotate(-27.51)"><tspan x="0" y="0">L</tspan></text><text class="cls-1" transform="translate(411.05 511.23) rotate(-31.14)"><tspan x="0" y="0"> </tspan></text><text class="cls-1" transform="translate(420.58 505.56) rotate(-34.38)"><tspan x="0" y="0">I</tspan></text><text class="cls-1" transform="translate(435.81 495.33) rotate(-39.6)"><tspan x="0" y="0">N</tspan></text><text class="cls-1" transform="translate(457.65 477) rotate(-45.38)"><tspan x="0" y="0">S</tspan></text><text class="cls-1" transform="translate(474.12 460.21) rotate(-50.47)"><tspan x="0" y="0">T</tspan></text><text class="cls-1" transform="translate(488.7 442.57) rotate(-55.91)"><tspan x="0" y="0">R</tspan></text><text class="cls-1" transform="translate(503.78 420.17) rotate(-61.85)"><tspan x="0" y="0">U</tspan></text><text class="cls-1" transform="translate(516.58 395.96) rotate(-67.56)"><tspan x="0" y="0">C</tspan></text><text class="cls-1" transform="translate(525.93 373.03) rotate(-72.75)"><tspan x="0" y="0">T</tspan></text><text class="cls-1" transform="translate(532.79 351.16) rotate(-78.35)"><tspan x="0" y="0">O</tspan></text><text class="cls-1" transform="translate(538.43 323.14) rotate(-84.41)"><tspan x="0" y="0">R</tspan></text><path class="cls-5" d="m390.6,183.43c.33-.57.46-1.23.36-1.91l-.02-.14c-.02-.12-.05-.25-.09-.38-.04-.12-.08-.25-.15-.4l-.05-.12c-.07-.13-.14-.27-.23-.4l-.08-.12c-.08-.11-.16-.21-.25-.31-.06-.07-.12-.13-.17-.19-.06-.06-.13-.12-.2-.18-.1-.08-.2-.17-.3-.24l-.14-.09c-.13-.08-.25-.16-.38-.22l-.15-.07c-.12-.05-.25-.1-.39-.15-.12-.04-.24-.07-.38-.09l-.14-.02c-.66-.09-1.31.04-1.89.37-1.72-.67-4.41-.74-5.74.58l-.51.5.22.68s.2,1.3-4.19,5.92c-2.25,2.37-4.57,4.41-4.59,4.43l-.53.46.32,1.39c-10.77,5.83-33.52,29.13-46.34,42.74l-1.14,1.22-4.08,3.91c-3.8-2.87-11.54-8.56-11.7-8.68-.98-.59-2.35-1.22-3.32-.88-.02,0-.04.02-.07.02-.35-.12-.7-.23-1.05-.35-2.6-.85-5.06-1.65-9.5-6.44l-1.03-1.11-3.02,4.64,4.67,4.67c-.26,1.28-.53,3.9,1.22,5.3,1.01.81,2.31,1.15,3.65.94.4-.06.84-.18,1.25-.37,1.3.92,2.92,1.6,5.21,1.1,1.14.95,3.1,2.56,4.84,3.99l1.03,2.47-.54.85.62,1.88-3.59,3.76-1.58,1.58h0s-16.68,16.55-16.68,16.55c-1.06.57-5.91-1.48-10.36-4.36l-.94-.61-2.84,3.92,8.22,6.97-151.07,151.12-5.33,15.56,15.38-5.52,151.05-151.1,6.02,7.3.91-1.04s.51-.58,1.69-2.06l.57-.72-.56-.73c-2.92-3.8-2.47-7.54-2.28-8.57l22.78-23.19.07-.04,2.17.9c1.11,1.68,3.82,5.04,6.29,8.01-.5,2.28.18,3.91,1.11,5.21-.18.41-.31.85-.37,1.25-.21,1.34.13,2.64.94,3.65,1.4,1.74,4.02,1.48,5.3,1.22l4.67,4.67,4.64-3.02-1.11-1.03c-4.39-4.07-5.35-6.79-6.2-9.2-.57-1.62-1.11-3.16-2.49-4.82,0,0,0,0,0-.01.12-1-.64-2.39-.97-2.94l-2.35-3.2-3.16-4.26c-.75-1.01-1.5-2.01-2.19-2.94l-.87-1.15.08-.08c6.87-6.34,40.83-38.05,48.01-51.29l1.39.32.46-.53s2.06-2.33,4.43-4.59c4.62-4.39,5.91-4.19,5.91-4.2l.68.22.51-.51c1.32-1.32,1.25-4.02.58-5.74Zm-.87-2.08h0,0Zm-3.57-1.26s0,0,0,0h0s0,0,0,0Z"/><path class="cls-5" d="m433.56,429.03l-151.09-151.1,8.22-6.97-2.84-3.92-.94.61c-4.45,2.89-9.32,4.93-10.36,4.36l-17.87-17.72-3.98-4.17.62-1.88-.54-.85,1.03-2.47c1.74-1.43,3.69-3.04,4.84-3.99,2.28.5,3.91-.18,5.21-1.1.41.19.85.3,1.25.37,1.34.2,2.64-.13,3.65-.94,1.74-1.4,1.48-4.02,1.22-5.3l4.67-4.67-3.02-4.64-1.02,1.11c-4.44,4.8-6.9,5.6-9.5,6.45-.35.11-.69.23-1.04.35-.02,0-.04-.02-.06-.02-.96-.34-2.33.29-3.41.94-.08.06-7.72,5.68-11.61,8.62l-4.04-3.86-1.19-1.26c-12.82-13.61-35.58-36.9-46.35-42.73l.32-1.39-.53-.46s-2.33-2.06-4.59-4.43c-4.39-4.62-4.19-5.91-4.19-5.91l.22-.68-.51-.51c-1.32-1.32-4.02-1.25-5.73-.58-.57-.33-1.22-.46-1.89-.37l-.15.03c-.12.02-.25.05-.38.09-.13.04-.25.09-.38.14l-.14.06c-.13.07-.27.14-.4.23l-.11.08c-.11.07-.2.16-.31.25-.06.06-.13.11-.17.16-.06.06-.12.12-.18.2-.09.1-.17.2-.24.3l-.09.13c-.08.13-.16.26-.23.4l-.06.14c-.06.13-.1.25-.14.39-.04.12-.07.24-.08.35l-.03.17c-.09.66.03,1.31.37,1.89-.67,1.72-.75,4.41.58,5.74l.5.51.68-.22s1.31-.19,5.92,4.19c2.37,2.25,4.41,4.56,4.43,4.59l.46.53,1.39-.32c7.18,13.24,41.15,44.94,47.99,51.25l.11.11-.89,1.19c-.67.89-1.41,1.89-2.17,2.9l-5.43,7.35-.08.12c-.33.55-1.09,1.94-.97,2.94,0,0,0,.01,0,.02-1.38,1.66-1.92,3.2-2.49,4.82-.85,2.41-1.81,5.13-6.2,9.2l-1.11,1.02,4.64,3.02,4.67-4.67c1.28.26,3.9.53,5.3-1.22.81-1.01,1.15-2.31.94-3.65-.06-.4-.18-.84-.37-1.25.92-1.3,1.61-2.93,1.11-5.21,2.47-2.97,5.18-6.33,6.29-8.01l2.17-.9,22.85,23.23c.2,1.04.64,4.77-2.28,8.57l-.56.73.57.72c1.19,1.48,1.69,2.06,1.69,2.06l.91,1.05,6.01-7.3,151.07,151.07,15.39,5.51-5.33-15.56ZM177.05,184.71h0s0,0,0,0h0Z"/><path class="cls-5" d="m468.86,105.22c.33-.57.46-1.23.37-1.91l-.03-.15c-.02-.12-.05-.24-.09-.37-.04-.12-.08-.25-.15-.39l-.06-.13c-.07-.13-.14-.27-.21-.37l-.09-.14c-.08-.11-.16-.21-.24-.3-.06-.07-.12-.13-.18-.19-.06-.07-.13-.13-.19-.18-.1-.09-.2-.17-.31-.25l-.11-.08c-.13-.08-.26-.16-.39-.23l-.15-.07c-.12-.05-.25-.1-.39-.15-.12-.04-.24-.07-.36-.09l-.16-.03c-.66-.09-1.31.04-1.89.37-1.72-.67-4.41-.75-5.74.58l-.51.5.22.68s.2,1.3-4.19,5.92c-2.25,2.37-4.56,4.41-4.59,4.43l-.53.46.32,1.39c-10.76,5.83-33.52,29.13-46.35,42.73l-1.14,1.21-4.08,3.91c-3.8-2.87-11.53-8.56-11.7-8.68-.98-.59-2.35-1.22-3.32-.88-.02,0-.04.02-.06.02-.35-.12-.7-.23-1.04-.35-2.6-.85-5.06-1.65-9.5-6.45l-1.03-1.11-3.02,4.64,4.67,4.67c-.26,1.28-.53,3.9,1.22,5.3,1.01.81,2.31,1.15,3.65.94.4-.06.84-.18,1.25-.37,1.3.92,2.93,1.6,5.21,1.1,1.14.95,3.1,2.56,4.84,3.99l1.03,2.47-.54.85.62,1.88-3.59,3.76-1.58,1.58h0s-16.68,16.55-16.68,16.55c-1.05.56-5.91-1.48-10.36-4.36l-.94-.61-2.85,3.92,8.22,6.97-151.09,151.1-5.33,15.56,15.39-5.51,151.08-151.07,6.01,7.3.91-1.05s.51-.58,1.69-2.06l.58-.72-.56-.73c-2.92-3.8-2.47-7.54-2.28-8.57l22.79-23.19.07-.04,2.17.9c1.11,1.68,3.82,5.04,6.29,8.01-.5,2.28.18,3.91,1.1,5.21-.18.41-.31.85-.37,1.25-.21,1.34.13,2.64.94,3.65,1.4,1.74,4.02,1.48,5.3,1.22l4.67,4.67,4.64-3.02-1.11-1.02c-4.39-4.07-5.35-6.8-6.2-9.2-.57-1.62-1.11-3.16-2.49-4.82,0,0,0-.01,0-.02.12-1-.64-2.39-.97-2.94l-5.51-7.46c-.75-1.01-1.5-2.01-2.19-2.94l-.87-1.16.08-.08c6.87-6.34,40.84-38.05,48.02-51.28l1.39.32.46-.53s2.06-2.33,4.43-4.59c4.61-4.38,5.91-4.2,5.91-4.19l.68.22.51-.51c1.33-1.32,1.25-4.02.58-5.74Zm-4.44-3.33h0s0,0,0,0h0Z"/><path class="cls-5" d="m355.89,351.37l-151.09-151.1,8.22-6.97-2.84-3.92-.94.61c-4.45,2.89-9.32,4.93-10.36,4.36l-17.87-17.72-3.98-4.17.62-1.88-.54-.85,1.03-2.47c1.74-1.43,3.69-3.04,4.84-3.99,2.28.5,3.91-.18,5.21-1.1.41.19.85.3,1.25.37,1.34.2,2.64-.13,3.65-.94,1.74-1.4,1.48-4.02,1.22-5.3l4.67-4.67-3.02-4.64-1.03,1.11c-4.44,4.8-6.9,5.6-9.5,6.45-.35.11-.69.23-1.04.35-.02,0-.04-.02-.06-.02-.96-.34-2.33.29-3.41.94-.08.06-7.72,5.68-11.61,8.62l-4.04-3.86-1.19-1.26c-12.82-13.61-35.58-36.9-46.35-42.73l.32-1.39-.53-.46s-2.33-2.06-4.59-4.43c-4.39-4.62-4.19-5.91-4.19-5.91l.22-.68-.51-.51c-1.32-1.32-4.02-1.25-5.73-.58-.57-.33-1.22-.46-1.89-.37l-.15.03c-.12.02-.25.05-.38.09-.13.04-.25.09-.38.14l-.14.06c-.13.07-.27.14-.4.23l-.11.08c-.11.07-.21.16-.31.25-.06.06-.13.11-.17.16-.06.06-.12.12-.18.2-.09.1-.17.2-.24.3l-.09.13c-.08.13-.16.26-.23.4l-.06.14c-.06.13-.1.25-.14.39-.04.12-.07.24-.08.35l-.03.17c-.09.66.03,1.31.37,1.89-.67,1.72-.75,4.41.58,5.74l.5.51.68-.22s1.31-.19,5.92,4.19c2.37,2.25,4.41,4.56,4.43,4.59l.46.53,1.39-.32c7.18,13.24,41.15,44.94,47.99,51.25l.11.11-.89,1.19c-.67.89-1.41,1.89-2.17,2.9l-5.43,7.35-.08.12c-.33.55-1.09,1.94-.97,2.94,0,0,0,.01,0,.02-1.38,1.66-1.92,3.2-2.49,4.82-.85,2.41-1.81,5.13-6.2,9.2l-1.11,1.03,4.64,3.02,4.67-4.67c1.28.26,3.9.53,5.3-1.22.81-1.01,1.15-2.31.94-3.65-.06-.4-.18-.84-.37-1.25.92-1.3,1.61-2.93,1.11-5.21,2.47-2.97,5.18-6.33,6.29-8.01l2.17-.9,22.85,23.23c.2,1.04.64,4.77-2.28,8.57l-.56.73.57.72c1.19,1.48,1.69,2.06,1.69,2.06l.91,1.05,6.01-7.3,151.07,151.07,15.39,5.51-5.33-15.56ZM99.38,107.04h0s0,0,0,0h0Z"/><path class="cls-2" d="m338.27,165.86c-23.87-9.77-56.58-19.17-56.58-19.17,0,0-32.7,9.4-56.58,19.17,5.07,54.88-24.15,58.32-56.58,63.15,6.01,37.59,21.8,141.35,21.8,141.35l91.35,68.42,91.35-68.42s15.79-103.75,21.8-141.35c-32.42-4.83-61.65-8.27-56.58-63.15Z"/><path class="cls-5" d="m281.69,442.52l-94.13-70.5-.18-1.21c-.16-1.04-15.86-104.17-21.8-141.32l-.48-2.99,4.55-.68c31.97-4.75,57.21-8.5,52.48-59.68l-.2-2.21,2.05-.84c23.75-9.72,56.56-19.19,56.88-19.28l.83-.24.83.24c.33.09,33.14,9.56,56.88,19.28l2.05.84-.2,2.21c-4.73,51.18,20.52,54.93,52.48,59.68l4.55.68-.48,2.99c-5.94,37.15-21.64,140.28-21.8,141.32l-.18,1.21-94.13,70.5Zm-88.57-73.83l88.57,66.33,88.57-66.33c1.74-11.44,15.26-100.13,21.14-137.16-15.77-2.35-30.59-4.76-41.3-13.4-12.13-9.78-16.92-25.81-15.01-50.33-21.11-8.45-48.33-16.52-53.4-18-5.07,1.48-32.3,9.55-53.4,18,1.91,24.52-2.88,40.55-15.01,50.33-10.71,8.64-25.53,11.05-41.3,13.4,5.89,37.03,19.4,125.72,21.14,137.16Z"/><path class="cls-5" d="m288.04,385.11c-21.59,0-38.73-6.52-51.42-19.57-12.69-13.05-19.04-31.39-19.04-55.04s6.36-40.99,19.09-54.56c12.73-13.56,29.88-20.34,51.47-20.34,5.73,0,10.89.32,15.46.97,4.58.64,8.96,1.55,13.15,2.71,3.29.97,6.86,2.29,10.73,3.96,3.87,1.68,6.99,3.13,9.37,4.35v34.31h-3.67c-1.74-1.55-3.93-3.4-6.57-5.56-2.64-2.16-5.64-4.27-8.99-6.33-3.35-2.06-7.04-3.82-11.07-5.27-4.03-1.45-8.23-2.18-12.61-2.18-5.22,0-10,.82-14.35,2.47-4.35,1.64-8.49,4.49-12.42,8.55-3.61,3.67-6.56,8.63-8.84,14.88-2.29,6.25-3.43,13.63-3.43,22.13,0,8.96,1.19,16.48,3.58,22.57,2.38,6.09,5.51,11,9.38,14.74,3.74,3.61,7.91,6.22,12.52,7.83,4.61,1.61,9.2,2.41,13.77,2.41s9.31-.79,13.63-2.37c4.32-1.58,7.96-3.33,10.92-5.27,3.22-2,6.06-4.03,8.51-6.09,2.45-2.06,4.57-3.9,6.38-5.51h3.29v33.83c-2.64,1.22-5.7,2.62-9.18,4.2-3.48,1.58-7.05,2.92-10.73,4.01-4.51,1.35-8.73,2.38-12.66,3.09-3.93.71-9.34,1.06-16.24,1.06Z"/><polygon class="cls-5" points="287.79 186.58 308.53 187 291.16 198.34 297.17 218.19 281.02 205.18 264 217.03 271.38 197.65 254.85 185.13 275.57 186.16 282.37 166.57 287.79 186.58"/><text class="cls-3" transform="translate(148.51 104) rotate(-34.01)"><tspan x="0" y="0">S</tspan></text><text class="cls-3" transform="translate(167.76 90.79) rotate(-27.65)"><tspan x="0" y="0">H</tspan></text><text class="cls-3" transform="translate(192.78 77.62) rotate(-20.57)"><tspan x="0" y="0">O</tspan></text><text class="cls-3" transform="translate(219.42 67.56) rotate(-13.45)"><tspan x="0" y="0">N</tspan></text><text class="cls-3" transform="translate(247.18 60.98) rotate(-6.71)"><tspan x="0" y="0">A</tspan></text><text class="cls-3" transform="translate(272.52 58.27) rotate(-2.19)"><tspan x="0" y="0"> </tspan></text><text class="cls-3" transform="translate(283.15 57.57) rotate(2.26)"><tspan x="0" y="0">C</tspan></text><text class="cls-3" transform="translate(307.82 58.49) rotate(8.54)"><tspan x="0" y="0">A</tspan></text><text class="cls-3" transform="translate(332.85 62.16) rotate(15.13)"><tspan x="0" y="0">R</tspan></text><text class="cls-3" transform="translate(358.77 69.16) rotate(21.77)"><tspan x="0" y="0">A</tspan></text><text class="cls-3" transform="translate(382.26 78.38) rotate(28.68)"><tspan x="0" y="0">N</tspan></text><text class="cls-3" transform="translate(407.26 92) rotate(36.07)"><tspan x="0" y="0">O</tspan></text></svg>