<svg xmlns="http://www.w3.org/2000/svg" viewBox="0 0 566.93 566.93"><defs><style>.cls-1{fill:#fff;}.cls-2{fill:#cc1333;}.cls-3{fill:#feffff;}</style></defs><title>Tokusetsu Butai</title><g id="Capa_2" data-name="Capa 2"><ellipse class="cls-1" cx="283.46" cy="283.46" rx="279.21" ry="279.18"/><ellipse class="cls-1" cx="283.46" cy="283.46" rx="279.21" ry="279.18"/><ellipse class="cls-1" cx="283.46" cy="283.46" rx="279.21" ry="279.18"/></g><g id="Capa_1" data-name="Capa 1"><path class="cls-2" d="M284,84.07c100.14.24,182.84,74.23,196.81,170.42h69C535.27,120.38,421.38,15.62,283.46,15.62S31.66,120.38,17.16,254.49H86.1C100,158.22,183.64,83.83,284,84.07Z"/><path class="cls-2" d="M283.46,551.31c138,0,252-104.91,266.34-239.15h-69c-13.93,96.81-97,170.93-197.53,170.7a199,199,0,0,1-197-170.7H17.13C31.5,446.4,145.45,551.31,283.46,551.31Z"/><path class="cls-2" d="M553.84,312.16A271.9,271.9,0,0,1,91.22,475.69,269.71,269.71,0,0,1,13.09,312.16H4.25c14.37,141.51,133.9,251.93,279.21,251.93S548.3,453.67,562.68,312.16Z"/><path class="cls-2" d="M283.46,11.61A271.92,271.92,0,0,1,553.81,254.49h8.84C548.14,113.12,428.69,2.83,283.46,2.83S18.79,113.12,4.28,254.49h8.84A271.92,271.92,0,0,1,283.46,11.61Z"/><path class="cls-3" d="M283.46,555.31A271.9,271.9,0,0,0,553.84,312.16h-4C535.43,446.4,421.48,551.31,283.46,551.31S31.5,446.4,17.13,312.16h-4A271.9,271.9,0,0,0,283.46,555.31Z"/><path class="cls-3" d="M283.46,15.62c137.92,0,251.81,104.76,266.3,238.87h4A271.89,271.89,0,0,0,91.22,91.24a269.73,269.73,0,0,0-78.1,163.25h4C31.66,120.38,145.55,15.62,283.46,15.62Z"/><path class="cls-1" d="M219.29,70.59l-3,5.14a108.3,108.3,0,0,0-9.61-5L209.42,66l-4.06,1.36-.63-1.89c-.34.26-.87.65-1.6,1.16s-1.26.87-1.61,1.1l5.74,17.18-6.13,2-5.24-15.68c-1.68,1.06-3.94,2.35-6.76,3.86l-2.38-5.21q4.2-2.2,7.32-4.11l-3.38-10.08-1.88.62c.64,3.41,1.09,6.47,1.36,9.21l-5.2.34a136.57,136.57,0,0,0-3.7-18.94l4.92-1.32q1.37,5,1.41,5.16l1.3-.43L186.47,43l6.12-2L195,48.28l4.2-1.4L201,52.23l-4.2,1.41,2.86,8.54q1.32-.87,4-2.79l1,2.35,16.22-5.42-1.27-3.81-17.28,5.77L200.59,53l10.47-3.5-1.48-4.44-9,3L198.86,43l9-3-1.58-4.73,6.52-2.17,1.58,4.73,9.17-3.07,1.69,5.07-9.17,3.06,1.49,4.44,10.81-3.61L230.15,49,226,50.38l1.27,3.81,4.15-1.39L233.16,58,229,59.4l2.7,8.06q.67,2,1,3.21A9.49,9.49,0,0,1,233,73a4.21,4.21,0,0,1-.26,1.72A3.61,3.61,0,0,1,231.63,76a7.84,7.84,0,0,1-2,1.09c-.73.28-1.76.64-3.08,1.08q-1.4.47-6.06,1.76l-2.05-5.16q4.14-1.11,5.2-1.47a5.08,5.08,0,0,0,2.17-1.05c.16-.27,0-1-.37-2.23l-2.83-8.45-12.5,4.18A95.09,95.09,0,0,1,219.29,70.59Z"/><path class="cls-1" d="M238,42l-.5-5.42,19.67-1.79.49,5.42Zm.72-7.73-.46-5.12,16.93-1.54.46,5.12Zm1.76,14.81-.45-5,16.47-1.49.45,5Zm.65,7.2-.45-5,16.47-1.5.45,5Zm18.35-4-.5-5.47,2.18-.2-3.95-3.48a11.56,11.56,0,0,0,2.92-5.24,27.64,27.64,0,0,0,.18-8.42l-.23-2.59,16.47-1.5,1.07,11.81c0,.41.1.64.2.7a1.78,1.78,0,0,0,.84,0c.85-.07,1.33-.38,1.45-.92a36.21,36.21,0,0,0,.08-5.29l5.13.24c0,1.57.08,2.73.12,3.49a18.23,18.23,0,0,1-.1,2.59c-.1,1-.18,1.63-.23,2a2.76,2.76,0,0,1-.7,1.29,3.16,3.16,0,0,1-1,.91q-.41.16-1.62.51a13.11,13.11,0,0,1-2.18.42l-3,.27c-1.9.18-3.13.09-3.71-.25s-.92-1.15-1-2.43L271,31.38l-4.56.42V32q.88,9.68-4.39,14.6l21.18-1.92.5,5.42v.05h0a32.28,32.28,0,0,1-5.62,10.11A46.37,46.37,0,0,0,288,63.67l-1.67,5.77a49.36,49.36,0,0,1-12.89-4.55,52.14,52.14,0,0,1-11.34,6.75l-3-4.27.29,3.25-11.1,1,.17,1.87-6,.55L241,58.54,258.08,57l.86,9.42a40.45,40.45,0,0,0,8.9-4.9,36.62,36.62,0,0,1-6.79-6.12l3.82-3.57ZM247.78,66.76l5.52-.5-.35-3.9-5.52.5Zm24.84-9.51A27.38,27.38,0,0,0,277,50.72l-10.89,1A38.79,38.79,0,0,0,272.62,57.25Z"/><path class="cls-1" d="M313.7,70.52l-.39,1.85L306.79,71l4.15-19.56,22.25,4.72L329.05,75.7l-6.23-1.32.39-1.84ZM309.55,47.9l1.16-5.47,5.08,1.07c-.07-2.75-.2-5.66-.39-8.71l-2.49-.53L314,28.93l9.06,1.92.92-4.33,6.62,1.4-.92,4.33,9.41,2L338,39.58l-2.29-.49a81,81,0,0,1-3.89,7.81l4.93,1-1.16,5.48ZM324.3,67.41l1.54-7.27-9.51-2-1.54,7.27ZM326,45.65a66.82,66.82,0,0,0,3.89-7.81l-8.41-1.78q.3,4.9.29,8.7Zm25.52,7.7a16.63,16.63,0,0,1,2.91,6.42,16.32,16.32,0,0,1,.05,6.85q-1,4.72-3.27,6.33c-1.5,1.07-3.59,1.32-6.24.76L341.73,73V67.15l1.1.23c1.85.4,3.13.43,3.83.09a3.48,3.48,0,0,0,1.48-2.6q1.13-5.28-3.54-12.71a67.2,67.2,0,0,0,8.25-11.93l-6-1.28L338.6,77.73l-6.32-1.34,9.32-44,18.82,4-1.1,5.18A78.78,78.78,0,0,1,351.47,53.35Z"/><path class="cls-1" d="M380.87,93.68q-2.85-1.35-8.18-4.12l1.91-4.45a49.36,49.36,0,0,1-7.87.86V80q11.28,0,19.39-3.71a18.08,18.08,0,0,0,.23-2.88A46,46,0,0,1,373,76.07q-2.93,2.85-7.75.58l-.83-.39,1.16-5.35.65.3a2.79,2.79,0,0,0,2.38.31,5.55,5.55,0,0,0,1.8-2.51,10.42,10.42,0,0,0,1.07-4.13,20.71,20.71,0,0,0-.83-5.37L359.14,83.93l-5.62-2.64,19.09-40.67,15.48,7.26-2.18,4.65a.22.22,0,0,0-.11.12.26.26,0,0,1-.11.12l3.91,1.84c.06-1.81.07-3.63,0-5.45l6.28.87q.1,3.26-.18,7.45l4.79,2.25a48.91,48.91,0,0,0,6.12-4.89l4.83,4a42.42,42.42,0,0,1-4.68,3.87l6,2.83-2.31,4.93-8.3-3.89q-1.41,4.21-2.22,7.73,3-1.08,5.59-2.33L407,77.53a53.65,53.65,0,0,1-8,3.27,36,36,0,0,0,.89,13.8l-5.45,4.3a42.57,42.57,0,0,1-1.59-16A70.73,70.73,0,0,1,396.87,64l-1.57-.73a27,27,0,0,1-3.43,1.2,34.13,34.13,0,0,1-2.33,22.68q-2.42,5.16-4.23,6.44T380.87,93.68ZM380.56,50l-4.51-2.12-4.87,10.36A58.92,58.92,0,0,0,380.56,50Zm4.06,32.2A42.74,42.74,0,0,1,375.51,85q3.09,1.68,4.89,2.52a1.29,1.29,0,0,0,1.45-.11,10.36,10.36,0,0,0,1.84-3.07C384.11,83.43,384.42,82.73,384.62,82.23Zm1.43-14c-.18-1.06-.31-1.89-.41-2.49a54,54,0,0,1-7.82.37l-.14-5.57A45,45,0,0,0,388.35,60l-6.82-3.2a51.74,51.74,0,0,1-5.29,4.43,18.88,18.88,0,0,1-.1,8.84A38,38,0,0,0,386.05,68.28Z"/><path class="cls-1" d="M72.87,335.2l11,36.53-7.06,2.11-4.4-14.68-24.06,7.21-2.13-7.1,24.05-7.22-4.42-14.74Z"/><path class="cls-1" d="M99.65,402a8.23,8.23,0,0,1,.84,5.24,13.41,13.41,0,0,1-1.88,5.05,19.84,19.84,0,0,1-3.44,4.15,22,22,0,0,1-4.42,3.15A23.09,23.09,0,0,1,84,422a16,16,0,0,1-7.19-.28,9.23,9.23,0,0,1-5.61-4.24L62,400.65a9.12,9.12,0,0,1-.55-7,15.16,15.16,0,0,1,3.71-6.17,24.31,24.31,0,0,1,5.77-4.35,23.3,23.3,0,0,1,6.78-2.43,15.81,15.81,0,0,1,7.2.25,8.93,8.93,0,0,1,5.59,4.25l.5.91,8.16,15ZM76.74,412.36a5,5,0,0,0,3,2.31,8.56,8.56,0,0,0,3.93.16,13.37,13.37,0,0,0,3.71-1.33,12.31,12.31,0,0,0,3.11-2.41,9.18,9.18,0,0,0,2-3.37,4.91,4.91,0,0,0-.25-3.81L84.84,390.2a4.91,4.91,0,0,0-3-2.29,9.32,9.32,0,0,0-3.93-.15,12.35,12.35,0,0,0-3.7,1.3A12.74,12.74,0,0,0,71,391.45a8.43,8.43,0,0,0-2,3.37,5,5,0,0,0,.29,3.82Z"/><path class="cls-1" d="M112.77,421.12,87.71,442,83,436.34,108,415.42Zm-3.18,10.17a55.12,55.12,0,0,1,10.21,4.43l12.55,6.71-6.25,5.21-8.75-5q-2.13-1.17-4.06-2.16a22.61,22.61,0,0,0-3.84-1.56,3.07,3.07,0,0,0-2.86.1,3.21,3.21,0,0,0-.6,2.79,22.15,22.15,0,0,0,.84,4.05c.42,1.4.89,2.85,1.4,4.38l3.6,9.89-6.37,5.31-4.47-14a54.76,54.76,0,0,1-2.54-10.88,8.82,8.82,0,0,1,11.14-9.25Z"/><path class="cls-1" d="M126.41,483.46a24.53,24.53,0,0,1-3.94-4.08,23.9,23.9,0,0,1-2.86-4.88,15.5,15.5,0,0,1-1.26-5.48,8.11,8.11,0,0,1,1.63-5.27l1.47-1.79,12.93-15.75,5.7,4.67L126.75,467.1a4.13,4.13,0,0,0-.79,3,9.49,9.49,0,0,0,.9,3.06,14.83,14.83,0,0,0,1.71,2.68,15.88,15.88,0,0,0,2.23,2.26,15.58,15.58,0,0,0,2.65,1.75,14.49,14.49,0,0,0,3,1.15,9.38,9.38,0,0,0,3.17.3,4.15,4.15,0,0,0,2.8-1.37l13.32-16.23,5.73,4.71L148.5,484.18,147,486a8,8,0,0,1-4.88,2.61,15.48,15.48,0,0,1-5.64-.19,23.18,23.18,0,0,1-5.34-1.86A23.9,23.9,0,0,1,126.41,483.46Z"/><path class="cls-1" d="M193.36,494.84,170.93,482.7a3.73,3.73,0,0,0-1.74-.41,2.94,2.94,0,0,0-1.34.34,1.94,1.94,0,0,0-.8.78,1.92,1.92,0,0,0-.22,1.1,2.81,2.81,0,0,0,.45,1.31,3.6,3.6,0,0,0,1.3,1.23l13.72,7.43a11.8,11.8,0,0,1,4.74,4.59,10.15,10.15,0,0,1,1.31,5.08,9.84,9.84,0,0,1-1.17,4.41,9.46,9.46,0,0,1-3,3.31,10.38,10.38,0,0,1-5,1.69,11,11,0,0,1-6.36-1.54l-.29-.15a3.66,3.66,0,0,1-.61-.27L150.55,500l3.5-6.48,22.53,12.19a2.8,2.8,0,0,0,1.7.49,3,3,0,0,0,1.38-.41,2.38,2.38,0,0,0,.85-.88,2.57,2.57,0,0,0,.22-1.1,2.72,2.72,0,0,0-.35-1.48,3.71,3.71,0,0,0-1.29-1.26l-13.73-7.42a12,12,0,0,1-4.74-4.57,9.9,9.9,0,0,1-1.35-5,9.41,9.41,0,0,1,1.11-4.31,9.14,9.14,0,0,1,3-3.22A10.36,10.36,0,0,1,168.3,475a11.88,11.88,0,0,1,6.4,1.46l.29.16a4.66,4.66,0,0,1,.61.26l21.26,11.51Z"/><path class="cls-1" d="M211.87,493.62l2.41.77L235,501l-2.23,7-21.37-6.81a4.91,4.91,0,0,0-3.78.47,9.23,9.23,0,0,0-2.94,2.61,12.14,12.14,0,0,0-2.35,7.39,9.29,9.29,0,0,0,.88,3.83,4.93,4.93,0,0,0,2.82,2.57l21.37,6.8-2.24,7L203,524.83l-1-.31a9,9,0,0,1-5.15-4.73,16,16,0,0,1-1.53-7,24,24,0,0,1,1.13-7.08,23.24,23.24,0,0,1,3.2-6.42,16.53,16.53,0,0,1,5.28-4.8A8.86,8.86,0,0,1,211.87,493.62Zm17,26-21.47-6.84,2.23-7,21.48,6.83Z"/><path class="cls-1" d="M239.23,502l37.87,4.52-.87,7.31L261,512,258,537l-7.37-.87,3-24.94-15.28-1.82Z"/><path class="cls-1" d="M317.75,511.2l-25.43,1.91a3.72,3.72,0,0,0-1.69.6,3,3,0,0,0-.94,1,2,2,0,0,0-.25,1.1,2.06,2.06,0,0,0,.41,1,3.09,3.09,0,0,0,1.08.86,3.69,3.69,0,0,0,1.77.33l15.56-1.17a11.85,11.85,0,0,1,6.46,1.31,10.17,10.17,0,0,1,3.86,3.57,10,10,0,0,1,1.4,4.33,9.76,9.76,0,0,1-.77,4.44,10.48,10.48,0,0,1-3.28,4.1,11.08,11.08,0,0,1-6.17,2.15l-.33,0a5,5,0,0,1-.66.11l-24.22,1.81-.55-7.34,25.54-1.92a2.78,2.78,0,0,0,1.69-.51,3,3,0,0,0,.94-1.09,2.35,2.35,0,0,0,.24-1.2,3,3,0,0,0-1.51-2.09,3.5,3.5,0,0,0-1.76-.37l-15.56,1.17a11.89,11.89,0,0,1-6.47-1.28,10.09,10.09,0,0,1-3.84-3.48,9.45,9.45,0,0,1-1.39-4.22,9.16,9.16,0,0,1,.77-4.33,10.36,10.36,0,0,1,3.29-4,11.72,11.72,0,0,1,6.17-2.23l.32,0a5,5,0,0,1,.66-.1l24.11-1.81Z"/><path class="cls-1" d="M348.57,530.79a24.24,24.24,0,0,1-5.61.84,23.65,23.65,0,0,1-5.63-.49,15.32,15.32,0,0,1-5.19-2.15,8.08,8.08,0,0,1-3.36-4.38l-.6-2.23-5.35-19.67,7.11-1.93,5.5,20.25a4.14,4.14,0,0,0,2,2.4,9.68,9.68,0,0,0,3,1,14.75,14.75,0,0,0,3.18.16,15.2,15.2,0,0,0,6.1-1.66,14.16,14.16,0,0,0,2.66-1.74,9.69,9.69,0,0,0,2.08-2.42,4.13,4.13,0,0,0,.5-3.07l-5.5-20.26,7.16-1.94L362,513.2l.61,2.23a8,8,0,0,1-.71,5.49,15.56,15.56,0,0,1-3.42,4.48,23.32,23.32,0,0,1-4.6,3.28A24.29,24.29,0,0,1,348.57,530.79Z"/><path class="cls-1" d="M417.44,481.92a10.23,10.23,0,0,1,3.17,3.29,9.59,9.59,0,0,1,1.29,4.32,10.43,10.43,0,0,1-1.1,5.13,11.05,11.05,0,0,1-4.58,4.67l-.28.17a4.11,4.11,0,0,1-.54.39l-19,11.29a3.68,3.68,0,0,1-4.9-1.25L378.65,488.3a3.56,3.56,0,0,1-.36-2.7,3.62,3.62,0,0,1,1.6-2.2l16.25-9.66a4.15,4.15,0,0,1,.6-.29l.28-.17a11.89,11.89,0,0,1,6.33-1.72,10.54,10.54,0,0,1,5,1.41,9.16,9.16,0,0,1,3.12,3.1,9.44,9.44,0,0,1,1.29,4.22.62.62,0,0,1,0,.2A10.28,10.28,0,0,1,417.44,481.92Zm-12.61.4a2.84,2.84,0,0,0,.38-1.28A2,2,0,0,0,405,480a2,2,0,0,0-.83-.75,3.06,3.06,0,0,0-1.35-.29,3.68,3.68,0,0,0-1.73.49L388.28,487a1.33,1.33,0,0,0-.56,2.06l1.77,3,14.08-8.37A3.68,3.68,0,0,0,404.83,482.32Zm7.94,10.56a2.88,2.88,0,0,0,1.29-1.21,3,3,0,0,0,.35-1.4,2.24,2.24,0,0,0-.32-1.18,2.61,2.61,0,0,0-.83-.75,2.73,2.73,0,0,0-1.45-.45,3.54,3.54,0,0,0-1.74.46l-3,1.8-13.8,8.2,1.94,3.26a1.34,1.34,0,0,0,2.08.49l.38-.23Z"/><path class="cls-1" d="M448.09,476.79a24,24,0,0,1-9.91,5.31,15.32,15.32,0,0,1-5.61.38,8.05,8.05,0,0,1-5-2.43l-1.53-1.73-13.54-15.25,5.51-4.88L432,473.89a4.1,4.1,0,0,0,2.85,1.25,9.26,9.26,0,0,0,3.15-.41,15,15,0,0,0,9.25-8.21,9.26,9.26,0,0,0,.79-3.09,4.18,4.18,0,0,0-.91-3l-13.94-15.7,5.55-4.92,13.53,15.24,1.54,1.73a8.06,8.06,0,0,1,1.81,5.23,15.73,15.73,0,0,1-1.07,5.54,23.89,23.89,0,0,1-2.67,5A24.5,24.5,0,0,1,448.09,476.79Z"/><path class="cls-1" d="M442.24,436.5l23.14-30.32,5.85,4.46-9.3,12.19,20,15.24-4.5,5.9-20-15.24L448.1,441Z"/><path class="cls-1" d="M491.6,399.32,496.69,389l-4.28-.52c-1.6-.14-3.13-.25-4.58-.34a22.61,22.61,0,0,0-4.15.13,3.11,3.11,0,0,0-2.57,1.24,3.25,3.25,0,0,0,.53,2.9,25.34,25.34,0,0,0,2.44,3.32q1.41,1.65,3.05,3.44l12,12.62-3.6,7.29L481,403.21a58,58,0,0,1-6.68-8.94,8.82,8.82,0,0,1,6.39-13,55.47,55.47,0,0,1,11.17-.1l21.52,1.87-3.7,7.49-5.22-.62-6.25,12.67Z"/><path class="cls-1" d="M508.76,373.54l3.71-13.12-17-4.81-3.71,13.11-7.08-2,9.42-33.32,7.09,2-3.7,13.06,17,4.81,3.7-13.06,7.08,2-9.42,33.31Z"/><path class="cls-2" d="M283.56,471V445.48L270,444.54c-68.31-4.9-128.29-56.46-143.1-123.41-9.87-44.6-2.57-86.4,22.37-124.75C163,175.38,181,158.71,202.59,146q37.77-22.29,75.48-44.68c1.38-.82,2.8-1.58,4.86-2.74v25.32c4.93.35,9.34.64,13.74,1,68.84,5,128.44,56.64,143.2,124.3,9.93,45.53,1.87,87.84-24.23,126.44-14.12,20.88-32.73,37-54.58,49.67-23.89,13.82-47.53,28.09-71.28,42.15C288,468.44,286.22,469.44,283.56,471ZM402.21,288.49C404,226,357.64,170.93,292.07,166.15c-68.89-5-125.34,47.81-127.52,114.73-2.06,63.2,45.41,118.21,110.53,122.29C343.83,407.49,398.45,357.4,402.21,288.49Z"/><path class="cls-2" d="M279.6,193.26h7.65c.33,9.77.59,19.37,1,29,.33,8.17-.11,16.49,1.37,24.45,3.66,19.74,19.49,32.27,39.79,32.71,13.37.29,26.75.73,40.12,1.11,1.62.05,3.24.2,4.85.31.91,2.54.23,4.88.46,7.13-1.79,1.2-3.62.86-5.34.92q-20.06.61-40.12,1.13c-20.21.5-35.64,12.79-39.7,32.41-1.25,6-1.17,12.41-1.27,18.64-.19,11.57-.05,23.14-.39,34.73-3.25,1.11-5.6.29-8.37.63-.34-6.6-.73-12.91-1-19.23-.35-9.36-.52-18.73-.91-28.08-.94-22.52-17.52-38.56-40.22-39.1-13.52-.32-27-.74-40.57-1.13-1.6-.05-3.21-.21-4.81-.32a24.34,24.34,0,0,1,0-7.76c11.41-.42,22.83-.81,34.24-1.28,6.23-.26,12.47.2,18.68-.93A39.43,39.43,0,0,0,277.73,241c.58-15,1.1-30,1.65-45C279.42,195.16,279.52,194.31,279.6,193.26Z"/><path class="cls-2" d="M357.82,239.71A29.08,29.08,0,0,1,328.44,269a29.49,29.49,0,1,1,29.38-29.27Z"/><path class="cls-2" d="M208.88,329.83a29.09,29.09,0,0,1,29.22-29.45,29.5,29.5,0,1,1-29.22,29.45Z"/><path class="cls-2" d="M267.68,239.67A29.32,29.32,0,0,1,238.22,269c-16.5,0-29.38-13.05-29.34-29.79A29.37,29.37,0,0,1,238.45,210,29.69,29.69,0,0,1,267.68,239.67Z"/><path class="cls-2" d="M357.82,329.92a29.36,29.36,0,0,1-29.32,29.46A29.67,29.67,0,0,1,299,329.5a29.4,29.4,0,0,1,58.8.42Z"/></g></svg>