<svg id="Capa_1" data-name="Capa 1" xmlns="http://www.w3.org/2000/svg" viewBox="0 0 566.93 566.93"><defs><style>.cls-1{fill:#e42b1f;}.cls-2{fill:#fffefd;}.cls-3{fill:#e31316;}.cls-4{fill:#e31918;}</style></defs><title>Yojimbo</title><path class="cls-1" d="M283.54,562.69c-151,.92-279-122.12-279.29-278.88C4,129.69,129.41,4.37,283.78,4.23c153.71-.14,278.61,125.27,278.9,279.54C563,437.48,437,563.48,283.54,562.69Zm-.57-5.64c149.3,1.18,272.68-121,273.85-271.14C558,134.77,436.75,11.59,285.62,10.37S11.43,130.47,10.29,281.7C9.14,433.26,130.54,555.85,283,557.05Z"/><path class="cls-2" d="M283,557.05C130.54,555.85,9.14,433.26,10.29,281.7,11.43,130.47,134.53,9.16,285.62,10.37S558,134.77,556.82,285.91C555.65,436.08,432.27,558.23,283,557.05Zm0-247.77h-7.83q-47.76,0-95.52,0a91.2,91.2,0,0,1-18.57-1.81c-18.48-3.8-30-17.58-30.49-36.45-.33-13.09,3.69-25.07,7.88-37.33,7.48-21.86,19.08-41,35.39-57,27-26.41,58.68-43.68,97.46-45.14,2.24-.09,4.46-.44,6-1.67V86.83c-62.47.47-135.18,35.33-170.41,107.83-35.75,73.57-29.06,145,20.24,210.4,37.18,49.32,88.64,73.39,150.48,76.58V436.91c-24.31,0-46.82-6.78-67.88-18.57S171,391.45,156.58,370.43c22.72,0,43.71,0,64.69,0,10.55,0,20.76-1.36,29.88-7.16C270.58,350.93,278,331.53,283,309.28ZM289.21,481c101.88-1.61,198.59-89.76,190.45-210.76-7.81-116-107.92-184.18-190.44-182.9V130.7c50.21,2.75,88.95,26,118.82,65l-.55,1.81h-6c-19.14,0-38.28-.06-57.42,0-7.71,0-15.39.46-22.62,3.63-24.69,10.83-33.18,32.59-39,57.53h8q47.74,0,95.5,0a90.33,90.33,0,0,1,18,1.71c18.88,3.76,30.32,17.48,31.06,36.63.66,16.92-5.14,32.31-11.57,47.23-9.79,22.71-24,42.58-43.74,57.95-24.82,19.34-52,33.08-84.27,34.11-2.1.06-4.18,0-6.17,1.55ZM208.14,196.56c-17.92-.13-32.66,13.93-32.8,31.27-.14,17.81,14.5,32.71,32.17,32.75a32.19,32.19,0,0,0,32.41-31.81A31.79,31.79,0,0,0,208.14,196.56Zm182,143.23c.11-17.7-14.62-32.4-32.49-32.42a32.25,32.25,0,0,0-32.08,31.51,31.81,31.81,0,0,0,31.48,32.52C375.28,371.57,390,357.48,390.15,339.79Z"/><path class="cls-3" d="M283,309.28c-5,22.25-12.42,41.65-31.85,54-9.12,5.8-19.33,7.18-29.88,7.16-21,0-42,0-64.69,0,14.45,21,32.19,36.19,53.13,47.91s43.57,18.58,67.88,18.57v44.73c-61.84-3.19-113.3-27.26-150.48-76.58-49.3-65.38-56-136.83-20.24-210.4C142.1,122.16,214.81,87.3,277.28,86.83v43.11c-1.5,1.23-3.72,1.58-6,1.67-38.78,1.46-70.44,18.73-97.46,45.14-16.31,15.93-27.91,35.1-35.39,57C134.28,246,130.26,258,130.59,271c.47,18.87,12,32.65,30.49,36.45a91.2,91.2,0,0,0,18.57,1.81q47.76-.06,95.52,0Z"/><path class="cls-3" d="M289.21,481V437.85c2-1.51,4.07-1.49,6.17-1.55,32.27-1,59.45-14.77,84.27-34.11,19.74-15.37,34-35.24,43.74-57.95,6.43-14.92,12.23-30.31,11.57-47.23-.74-19.15-12.18-32.87-31.06-36.63a90.33,90.33,0,0,0-18-1.71q-47.76,0-95.5,0h-8c5.84-24.94,14.33-46.7,39-57.53,7.23-3.17,14.91-3.59,22.62-3.63,19.14-.08,38.28,0,57.42,0h6l.55-1.81c-29.87-39-68.61-62.25-118.82-65V87.37c82.52-1.28,182.63,66.9,190.44,182.9C487.8,391.27,391.09,479.42,289.21,481Z"/><path class="cls-4" d="M208.14,196.56a31.79,31.79,0,0,1,31.78,32.21,32.19,32.19,0,0,1-32.41,31.81c-17.67,0-32.31-14.94-32.17-32.75C175.48,210.49,190.22,196.43,208.14,196.56Z"/><path class="cls-4" d="M390.15,339.79c-.12,17.69-14.87,31.78-33.09,31.61a31.81,31.81,0,0,1-31.48-32.52,32.25,32.25,0,0,1,32.08-31.51C375.53,307.39,390.26,322.09,390.15,339.79Z"/></svg>